<svg xmlns="http://www.w3.org/2000/svg" width="89.598" height="103.112" viewBox="0 0 89.598 103.112">
  <g id="Group_19" data-name="Group 19" transform="translate(-834.983 -101.255)">
    <g id="Page-1" transform="translate(834.983 159.861)">
      <g id="_023---Bag-and-Shoe-Shopping" data-name="023---Bag-and-Shoe-Shopping" transform="translate(0 0)">
        <path id="Shape" d="M1.634,8.791A1.474,1.474,0,0,0,.99,10.011c.007,5.91.682,19.652,6.682,19.652H22.755a.742.742,0,0,0,0-1.483H7.672c-3.814,0-5.184-9.789-5.2-18.16a41.723,41.723,0,0,0,11.135,2.4v6.121a2.966,2.966,0,0,0,2.966,2.966h2.966A2.966,2.966,0,0,0,22.5,18.539V12.418a40.7,40.7,0,0,0,11.131-2.412c-.007,1.126-.033,2.848-.162,4.791a.743.743,0,1,0,1.483.1c.131-1.981.157-3.734.165-4.884A1.476,1.476,0,0,0,33.1,8.639a33.084,33.084,0,0,1-5.2,1.5C26.508,4.136,22.538,0,18.054,0S9.6,4.136,8.212,10.142a33.13,33.13,0,0,1-5.2-1.5,1.483,1.483,0,0,0-1.378.151ZM18.054,1.483c1.627,0,3.6,3.528,4.243,9.465-1.316.11-2.73.175-4.243.175s-2.927-.065-4.243-.175C14.449,5.012,16.427,1.483,18.054,1.483ZM21.02,18.539a1.483,1.483,0,0,1-1.483,1.483H16.57a1.483,1.483,0,0,1-1.483-1.483V12.524c.946.053,1.934.082,2.966.082s2.021-.03,2.966-.082Zm5.419-8.12c-.826.144-1.715.274-2.666.383A21.973,21.973,0,0,0,21.43,2.5C23.732,3.93,25.587,6.784,26.439,10.419ZM14.677,2.5a21.959,21.959,0,0,0-2.343,8.3c-.951-.108-1.84-.239-2.67-.383C10.52,6.784,12.375,3.93,14.677,2.5Z" transform="translate(-0.99 0)" fill="#333e48"/>
        <path id="Shape-2" data-name="Shape" d="M11.482,33.118H9.519a6.2,6.2,0,0,1-.937-2.007.742.742,0,1,0-1.409.459c.83,2.554,1.573,2.872,1.816,2.977a.748.748,0,0,0,.292.059h2.2a.742.742,0,1,0,0-1.483Z" transform="translate(-2.576 -7.9)" fill="#333e48"/>
        <path id="Shape-3" data-name="Shape" d="M22,22.742a.742.742,0,0,0,.742.742h1.483a.742.742,0,0,0,0-1.483H22.742A.742.742,0,0,0,22,22.742Z" transform="translate(-6.419 -5.685)" fill="#333e48"/>
        <path id="Shape-4" data-name="Shape" d="M40.474,18.2C33.842,23.888,29.2,30.52,25.812,35.365c-.529.756-1.03,1.473-1.507,2.14-3.223,4.512-7.678,1.442-7.861,1.311-.378-.271-1.03-.433-2.988.427a11.915,11.915,0,0,0-3.6,2.487c-1.034,1.027-2.719,3.012-2.38,4.756a2.548,2.548,0,0,0,1.684,1.862,12,12,0,0,0,4.627.71H24.167c3.654,0,4.733-1.892,6.693-5.327.719-1.261,1.612-2.826,2.823-4.643a21.233,21.233,0,0,1,3.752-4.2A14.869,14.869,0,0,1,39,41.518v6.059a1.483,1.483,0,0,0,1.483,1.483h2.225a1.483,1.483,0,0,0,1.483-1.483V39.286a14.965,14.965,0,0,1,.519-3.913c.663-2.44,1.689-6.155,1.7-6.269.533-5.866-1.544-9.213-2.83-10.685A2.219,2.219,0,0,0,40.474,18.2Zm2.808,16.789a16.463,16.463,0,0,0-.575,4.3v8.291H40.482V41.518A16.347,16.347,0,0,0,38.6,33.932a31.814,31.814,0,0,1,5.95-3.611Zm1.689-6.466c-1.811.736-8.541,3.782-12.521,9.751C31.209,40.13,30.3,41.721,29.572,43c-1.9,3.329-2.612,4.576-5.4,4.576H13.785a10.688,10.688,0,0,1-4.049-.593c-.711-.3-.781-.659-.8-.778-.148-.746.628-2.089,1.97-3.422A10.44,10.44,0,0,1,14.05,40.6a5.069,5.069,0,0,1,1.619-.519,8.75,8.75,0,0,0,3.284,1.273,6.464,6.464,0,0,0,6.558-2.99c.48-.671.984-1.391,1.516-2.151,3.344-4.779,7.923-11.325,14.413-16.893a.73.73,0,0,1,1.024.074C43.562,20.651,45.313,23.484,44.971,28.518Z" transform="translate(-2.654 -4.565)" fill="#333e48"/>
        <path id="Shape-5" data-name="Shape" d="M15.877,50.408a8.968,8.968,0,0,0-2.7,1.876,9.972,9.972,0,0,0-.831.934.742.742,0,1,0,1.172.911,8.349,8.349,0,0,1,.707-.792,7.49,7.49,0,0,1,2.251-1.571.742.742,0,0,0-.593-1.358Z" transform="translate(-3.884 -13.014)" fill="#333e48"/>
      </g>
    </g>
    <g id="Outlines" transform="translate(855.186 101.255)">
      <g id="Group_15" data-name="Group 15" transform="translate(0 0)">
        <path id="Path_83" data-name="Path 83" d="M32,35.332A.666.666,0,0,0,32,34H30.666a.666.666,0,0,0,0,1.332Z" transform="translate(-11.356 -12.69)" fill="#333e48"/>
        <path id="Path_84" data-name="Path 84" d="M41.8,49.646,40.2,43.5a.666.666,0,1,0-1.289.333l1.6,6.148a3.47,3.47,0,0,1-3.357,4.34H6.8A3.47,3.47,0,0,1,3.442,49.98l.2-.781a52.315,52.315,0,0,0,18.334,3.122A54.405,54.405,0,0,0,38.09,49.98a.666.666,0,1,0-.4-1.27,53.063,53.063,0,0,1-15.714,2.28A50.872,50.872,0,0,1,3.981,47.9L4.346,46.5a.666.666,0,1,0-1.288-.333l-.9,3.483a4.8,4.8,0,0,0,4.646,6H37.152a4.8,4.8,0,0,0,4.646-6Z" transform="translate(-2 -15.697)" fill="#333e48"/>
        <path id="Path_85" data-name="Path 85" d="M5.093,30.61a.666.666,0,0,0,.812-.477L8.321,20.81a2,2,0,0,1,1.937-1.5h1.265v1.332h-.666a.666.666,0,1,0,0,1.332h.666v1.332a2,2,0,0,0,4,0V21.975h.666a.666.666,0,1,0,0-1.332h-.666V19.311h2.663v11.32a2,2,0,0,0,2,2h5.327a2,2,0,0,0,2-2V19.311h2.663v1.332H29.5a.666.666,0,1,0,0,1.332h.666v1.332a2,2,0,0,0,4,0V21.975h.666a.666.666,0,0,0,0-1.332h-.666V19.311h1.265a2,2,0,0,1,1.931,1.5l1.727,6.659a.666.666,0,1,0,1.289-.333l-1.727-6.659a3.329,3.329,0,0,0-3.219-2.495H34.163V16.648a2,2,0,0,0,2-2V11.987a2,2,0,0,0-2-2h-.522a11.457,11.457,0,0,0-.59-1.539.666.666,0,0,0-1.2.574,9.89,9.89,0,0,1,.979,4.295.666.666,0,0,0,1.332,0,11.172,11.172,0,0,0-.2-2h.2a.666.666,0,0,1,.666.666V14.65a.666.666,0,0,1-.666.666h-4a.666.666,0,0,1-.666-.666V11.987a.666.666,0,0,1,.4-.607,7.278,7.278,0,0,1,.266,1.938.666.666,0,0,0,1.332,0,8.59,8.59,0,0,0-.514-2.909.059.059,0,0,0-.007-.021,8.65,8.65,0,0,0-16.766,2.264H12.881A9.988,9.988,0,0,1,30.507,6.918a.667.667,0,1,0,1.022-.858,11.316,11.316,0,0,0-19.5,3.929h-.5a2,2,0,0,0-2,2V14.65a2,2,0,0,0,2,2V17.98H10.258a3.329,3.329,0,0,0-3.223,2.494L4.618,29.8a.666.666,0,0,0,.475.814Zm9.094-7.3a.666.666,0,0,1-1.332,0V21.975h1.332Zm7.324,2.663h-2v-4h6.659v4h-2a.666.666,0,0,0-.666.666v2H22.177v-2A.666.666,0,0,0,21.511,25.97Zm4.661-5.327H19.514V17.314a.666.666,0,0,1,.666-.666h5.327a.666.666,0,0,1,.666.666ZM25.507,31.3H20.18a.666.666,0,0,1-.666-.666V27.3h1.332v2a.666.666,0,0,0,.666.666h2.663a.666.666,0,0,0,.666-.666v-2h1.332v3.329A.666.666,0,0,1,25.507,31.3Zm7.324-7.99a.666.666,0,0,1-1.332,0V21.975h1.332Zm0-6.659v4H31.5v-4ZM22.843,5.994a7.324,7.324,0,0,1,6.586,4.14,2,2,0,0,0-1.259,1.852V14.65a2,2,0,0,0,2,2V17.98H27.5v-.666a2,2,0,0,0-2-2H20.18a2,2,0,0,0-2,2v.666H15.519V16.648a2,2,0,0,0,2-2V11.987a2,2,0,0,0-1.259-1.852,7.324,7.324,0,0,1,6.586-4.14ZM10.858,14.65V11.987a.666.666,0,0,1,.666-.666h.187a11.354,11.354,0,0,0-.187,2,.666.666,0,0,0,.666.666h2.663a.666.666,0,0,0,.666-.666,7.278,7.278,0,0,1,.266-1.938.666.666,0,0,1,.4.607V14.65a.666.666,0,0,1-.666.666h-4A.666.666,0,0,1,10.858,14.65Zm3.329,2v4H12.855v-4Z" transform="translate(-2.867 -1.997)" fill="#333e48"/>
      </g>
    </g>
    <path id="XMLID_402_" d="M42.622,52.942a2.269,2.269,0,0,0-.707-1.646,2.273,2.273,0,0,0-.944-3.834v-2.4a2.208,2.208,0,0,0-2.2-2.206,2.2,2.2,0,0,0-2.025-1.327H31.117a3.017,3.017,0,0,0-5.266,0H16.772a3.018,3.018,0,0,0-5.266,0H5.871a2.216,2.216,0,0,0-1.64.728,2.192,2.192,0,0,0-.385.6,2.208,2.208,0,0,0-2.2,2.206v2.4A2.273,2.273,0,0,0,.707,51.3a2.27,2.27,0,0,0,0,3.293,2.27,2.27,0,0,0,0,3.293,2.27,2.27,0,0,0,0,3.293,2.27,2.27,0,0,0,0,3.293,2.27,2.27,0,0,0,0,3.293,2.275,2.275,0,1,0,3.753,2.28H6.213V71.49a2.275,2.275,0,1,0,1.249,0V70.041h3.576V71.49a2.275,2.275,0,1,0,1.249,0V70.041h3.576V71.49a2.275,2.275,0,1,0,1.249,0V70.041h3.576V71.49a2.275,2.275,0,1,0,1.249,0V70.041h3.576V71.49a2.275,2.275,0,1,0,1.249,0V70.04h3.576V71.49a2.275,2.275,0,1,0,1.249,0V70.04H35.16V71.49a2.275,2.275,0,1,0,1.249,0V70.04h1.753a2.275,2.275,0,1,0,3.753-2.28,2.27,2.27,0,0,0,0-3.293,2.27,2.27,0,0,0,0-3.293,2.27,2.27,0,0,0,0-3.293,2.27,2.27,0,0,0,0-3.293A2.266,2.266,0,0,0,42.622,52.942ZM7.864,73.678a1.027,1.027,0,1,1-1.027-1.027A1.028,1.028,0,0,1,7.864,73.678Zm9.649,0a1.027,1.027,0,1,1-1.027-1.027A1.028,1.028,0,0,1,17.513,73.678Zm4.825,0a1.027,1.027,0,1,1-1.027-1.027A1.028,1.028,0,0,1,22.338,73.678Zm4.825,0a1.027,1.027,0,1,1-1.027-1.027A1.028,1.028,0,0,1,27.162,73.678Zm9.649,0a1.027,1.027,0,1,1-1.027-1.027A1.028,1.028,0,0,1,36.812,73.678ZM41.374,49.65a1.028,1.028,0,0,1-.914,1.02l-.113,0-.113,0a1.027,1.027,0,1,1,1.14-1.02Zm-1.651-4.585v2.4a2.273,2.273,0,0,0-.944,3.834,2.27,2.27,0,0,0,0,3.293,2.27,2.27,0,0,0,0,3.293,2.27,2.27,0,0,0,0,3.293,2.27,2.27,0,0,0,0,3.293,2.27,2.27,0,0,0,0,3.293,2.277,2.277,0,0,0-.622,1.032H35.542V61.925a.624.624,0,0,0-1.249,0v6.867H32.047V56.257a17.849,17.849,0,0,0,2.246-2.037v4.751a.624.624,0,1,0,1.249,0v-6.25a17.626,17.626,0,0,0,3.386-8.6A.958.958,0,0,1,39.722,45.065ZM29.506,68.792V57.875q.663-.347,1.293-.747V68.792Zm-11.646,0V59.545c.421.083.846.15,1.273.2v.707a2.178,2.178,0,0,0,4.357,0v-.706q.644-.079,1.273-.2v9.247h-6.9Zm-3.495,0V58.464a17.745,17.745,0,0,0,2.246.784v9.544Zm-3.79-12.534V68.792H8.329V54.221A17.843,17.843,0,0,0,10.575,56.259Zm1.249,12.534V57.13q.631.4,1.293.746V68.792Zm8.558-8.338V56.986a.93.93,0,1,1,1.859,0v3.469a.93.93,0,0,1-1.859,0Zm5.629,8.338V59.251a17.571,17.571,0,0,0,2.246-.784V68.792ZM37.465,43.1a.929.929,0,0,1,.24.724A16.492,16.492,0,0,1,23.489,58.49V57.056a14.913,14.913,0,0,0,8.18-3.973.624.624,0,1,0-.859-.906,13.673,13.673,0,0,1-7.648,3.664,2.176,2.176,0,0,0-3.7,0A13.813,13.813,0,0,1,7.574,43.553a.688.688,0,0,1,.178-.536.707.707,0,0,1,.53-.235H9.339a1.665,1.665,0,0,0-.048.6,12.083,12.083,0,0,0,24.042,0,1.665,1.665,0,0,0-.048-.6h1.057a.707.707,0,0,1,.53.235.688.688,0,0,1,.178.536,13.77,13.77,0,0,1-2.537,6.679.624.624,0,1,0,1.012.731,15.021,15.021,0,0,0,2.767-7.286,1.942,1.942,0,0,0-.123-.9h.582A.964.964,0,0,1,37.465,43.1Zm-26.337-.317c-.006.075-.009.151-.009.228a3.025,3.025,0,0,0,2.53,2.98,3.176,3.176,0,0,0,4.494,3.392,3.324,3.324,0,0,0,6.338,0,3.173,3.173,0,0,0,4.494-3.392,3.024,3.024,0,0,0,2.53-2.98c0-.077,0-.153-.009-.228h.161a.435.435,0,0,1,.325.145.421.421,0,0,1,.108.327,10.834,10.834,0,0,1-21.557,0,.421.421,0,0,1,.108-.327.435.435,0,0,1,.325-.145h.161Zm5.65,1.808a1.927,1.927,0,0,1,1.916,1.745,3.306,3.306,0,0,0-.683,1.658,1.925,1.925,0,1,1-1.233-3.4Zm9.067,0a1.925,1.925,0,1,1-1.233,3.4,3.307,3.307,0,0,0-.683-1.658A1.927,1.927,0,0,1,25.845,44.589Zm-2.458,3.79A2.075,2.075,0,1,1,21.311,46.3,2.078,2.078,0,0,1,23.386,48.379Zm5.1-7.141a1.771,1.771,0,0,1,.017,3.542,3.187,3.187,0,0,0-1.723-1.3,1.767,1.767,0,0,1,1.706-2.243Zm-3.01,1.543c-.006.075-.009.151-.009.228a3.054,3.054,0,0,0,.021.352,3.182,3.182,0,0,0-2.626,2.077,3.314,3.314,0,0,0-3.1,0,3.182,3.182,0,0,0-2.626-2.077,3.055,3.055,0,0,0,.021-.352c0-.077,0-.153-.009-.228ZM14.138,41.238a1.767,1.767,0,0,1,1.706,2.243,3.187,3.187,0,0,0-1.723,1.3,1.771,1.771,0,0,1,.017-3.542ZM3.7,44.123A17.684,17.684,0,0,0,4.4,47.485a.624.624,0,1,0,1.191-.375,16.426,16.426,0,0,1-.675-3.287.93.93,0,0,1,.24-.724.964.964,0,0,1,.714-.317h.582a1.942,1.942,0,0,0-.123.9,15.061,15.061,0,0,0,12.8,13.378v1.435A16.487,16.487,0,0,1,6.672,49.724a.624.624,0,0,0-1.109.574A17.691,17.691,0,0,0,7.081,52.72V68.792H4.466a2.277,2.277,0,0,0-.622-1.032,2.27,2.27,0,0,0,0-3.293,2.27,2.27,0,0,0,0-3.293,2.27,2.27,0,0,0,0-3.293,2.27,2.27,0,0,0,0-3.293,2.27,2.27,0,0,0,0-3.293A2.273,2.273,0,0,0,2.9,47.462v-2.4A.958.958,0,0,1,3.7,44.123ZM1.249,49.65a1.027,1.027,0,1,1,1.14,1.02l-.113,0-.113,0A1.028,1.028,0,0,1,1.249,49.65Zm0,3.293a1.028,1.028,0,0,1,.914-1.02l.113,0,.113,0a1.026,1.026,0,0,1,0,2.04l-.113,0-.113,0A1.028,1.028,0,0,1,1.249,52.942Zm0,3.293a1.028,1.028,0,0,1,.914-1.02l.113,0,.113,0a1.026,1.026,0,0,1,0,2.04l-.113,0-.113,0A1.028,1.028,0,0,1,1.249,56.235Zm0,3.293a1.028,1.028,0,0,1,.914-1.02l.113,0,.113,0a1.026,1.026,0,0,1,0,2.041l-.113,0-.113,0A1.028,1.028,0,0,1,1.249,59.528Zm0,3.293a1.028,1.028,0,0,1,.914-1.02l.113,0,.113,0a1.026,1.026,0,0,1,0,2.041l-.113,0-.113,0A1.028,1.028,0,0,1,1.249,62.821Zm0,3.293a1.028,1.028,0,0,1,.914-1.02l.113,0,.113,0a1.026,1.026,0,0,1,0,2.041l-.113,0-.113,0A1.028,1.028,0,0,1,1.249,66.114Zm1.027,4.32a1.027,1.027,0,0,1-.113-2.047l.113,0,.113,0a1.027,1.027,0,0,1-.113,2.047Zm10.413,3.244a1.027,1.027,0,1,1-1.027-1.027A1.028,1.028,0,0,1,12.689,73.678Zm19.3,0a1.027,1.027,0,1,1-1.027-1.027A1.028,1.028,0,0,1,31.987,73.678Zm9.387-4.271a1.027,1.027,0,1,1-1.139-1.02l.113,0,.113,0A1.028,1.028,0,0,1,41.374,69.407Zm0-3.293a1.028,1.028,0,0,1-.914,1.02l-.113,0-.113,0a1.026,1.026,0,0,1,0-2.041l.113,0,.113,0A1.028,1.028,0,0,1,41.374,66.114Zm0-3.293a1.028,1.028,0,0,1-.914,1.02l-.113,0-.113,0a1.026,1.026,0,0,1,0-2.041l.113,0,.113,0A1.028,1.028,0,0,1,41.374,62.821Zm0-3.293a1.028,1.028,0,0,1-.914,1.02l-.113,0-.113,0a1.026,1.026,0,0,1,0-2.041l.113,0,.113,0A1.028,1.028,0,0,1,41.374,59.528Zm0-3.293a1.028,1.028,0,0,1-.914,1.02l-.113,0-.113,0a1.026,1.026,0,0,1,0-2.04l.113,0,.113,0A1.028,1.028,0,0,1,41.374,56.235ZM40.347,53.96l-.113,0a1.026,1.026,0,0,1,0-2.04l.113,0,.113,0a1.026,1.026,0,0,1,0,2.04Z" transform="translate(881.958 127.971)" fill="#333e48"/>
    <g id="XMLID_1749_" transform="translate(835.004 128.946)">
      <g id="Group_16" data-name="Group 16" transform="translate(0)">
        <path id="Path_86" data-name="Path 86" d="M34.945,50.342V47.65a2.305,2.305,0,0,0-3.336-2.061l-3.241,1.619-3.241-1.619A2.306,2.306,0,0,0,21.954,46.8H14.613l-2.252-2.762a.731.731,0,0,0,.015-.147V38.073a5.1,5.1,0,0,0-5.1-5.092H4.224l5.142-4.187a.728.728,0,1,0-.919-1.129L1.392,33.409a2.927,2.927,0,0,0-.618.507.729.729,0,0,0-.062.069A2.9,2.9,0,0,0,0,35.891v2.182a2.912,2.912,0,0,0,1.5,2.542L3.646,57.8a.728.728,0,0,0,.722.638H6.552a.728.728,0,0,0,.728-.728V41.6a8.015,8.015,0,0,1,2.77,1.911L20.256,56.029a6.529,6.529,0,0,0,5.08,2.412l.059,0,8.031-.658a1.662,1.662,0,0,0,1.518-1.647,2.168,2.168,0,0,0-.64-1.544l-1.967-1.964a2.3,2.3,0,0,0,2.607-2.284ZM5.824,56.985H5.011l-2-16h1.2a7.965,7.965,0,0,1,1.612.165Zm5.1-14.672a9.5,9.5,0,0,0-6.708-2.786h-1.3a1.457,1.457,0,0,1-1.456-1.454V35.891a1.446,1.446,0,0,1,.339-.932l.429-.35a1.448,1.448,0,0,1,.687-.173H7.28a3.642,3.642,0,0,1,3.64,3.636ZM23.285,47.4a.85.85,0,0,1,1.192-.509l3.163,1.58V49.52L24.477,51.1a.849.849,0,0,1-1.229-.758V47.791C23.248,47.662,23.293,47.443,23.285,47.4Zm9.99,8.218a.721.721,0,0,1,.213.514.2.2,0,0,1-.181.2l-8,.655a5.078,5.078,0,0,1-3.923-1.876L15.8,48.257h5.992v2.085A2.305,2.305,0,0,0,25.128,52.4l3.241-1.619.126.063ZM32.26,51.1l-2.993-1.5-.033-.017L29.1,49.52V48.472l3.163-1.58a.849.849,0,0,1,1.229.758v2.692a.849.849,0,0,1-1.229.758Z" transform="translate(0 -27.5)" fill="#333e48"/>
      </g>
    </g>
    <path id="shoes" d="M16.672,164.771h2.045c-.025.661-.029,1.152-.029,1.344V168.8a.672.672,0,0,0,.672.672H30.116a.672.672,0,0,0,.672-.672v-1.818c2.521.65,9.9,2.49,12.771,2.49,9.689,0,12.565-4.838,12.683-5.044a.672.672,0,0,0,.089-.333c0-.672-.628-1.166-2.319-1.824-.584-.227-1.3-.472-2.133-.732a7.343,7.343,0,0,0,1.675-1.816.672.672,0,0,0,.088-.333c0-.672-.628-1.166-2.319-1.824-1.024-.4-2.445-.851-4.223-1.344-3.007-.835-6.053-1.514-6.084-1.521a.672.672,0,0,0-.621.181l-1.344,1.344a.672.672,0,0,0-.126.776l.646,1.292-20.687-6.269a.673.673,0,0,0-.195-.029C16.076,152,16,160.447,16,161.41V164.1A.672.672,0,0,0,16.672,164.771Zm.672-1.344v-1.344h1.571c-.052.462-.092.916-.124,1.344Zm12.1,4.705h-9.41v-1.344h9.41Zm25.37-4.009a8.518,8.518,0,0,1-2.122,1.815,17.741,17.741,0,0,1-9.133,2.194c-3.235,0-13.17-2.639-13.27-2.666h0a.668.668,0,0,0-.173-.023H20.04a28.39,28.39,0,0,1,.488-4.994,5.375,5.375,0,0,1,.86-2.367l21.977,6.66a.672.672,0,0,0,.8-.944l-1.128-2.255.739-.739c.831.19,2.985.694,5.2,1.3C52.97,163.19,54.345,163.829,54.814,164.123Zm-36.975-8.379a5.375,5.375,0,0,1,.86-2.367l21.977,6.66a.672.672,0,0,0,.8-.944l-1.128-2.255.739-.739c.831.19,2.985.694,5.2,1.3,4,1.089,5.371,1.728,5.84,2.022a8.3,8.3,0,0,1-1.861,1.646l-.476-.134c-3.007-.835-6.053-1.514-6.084-1.521a.672.672,0,0,0-.621.181l-1.344,1.344a.672.672,0,0,0-.126.776L42.259,163l-20.687-6.269a.672.672,0,0,0-.195-.029c-1.246,0-1.915,1.92-2.274,4.033H17.351A28.365,28.365,0,0,1,17.839,155.744Z" transform="translate(863.25 -7.431)" fill="#333e48"/>
  </g>
</svg>
