<svg xmlns="http://www.w3.org/2000/svg" width="80.7" height="97.01" viewBox="0 0 80.7 97.01">
  <g id="Group_21" data-name="Group 21" transform="translate(-115.65 -101.7)">
    <path id="electronics_1_" data-name="electronics (1)" d="M83.4,1.455V0H4V1.455H20.475V7.35a3.632,3.632,0,0,0-2.81,2.837h-.793a.725.725,0,0,0-.721.728V13.1H15.43a.725.725,0,0,0-.721.728v2.183H13.268v1.455H14.71v1.455H13.268v1.455H14.71v.3A13.057,13.057,0,1,0,34.166,32.015a13.1,13.1,0,0,0-6.486-11.341v-.3h1.441V18.918H27.681V17.463h1.441V16.007H27.681V13.825a.725.725,0,0,0-.721-.728H26.24V10.914a.725.725,0,0,0-.721-.728h-.793a3.632,3.632,0,0,0-2.81-2.837V1.455ZM26.621,21.744A11.609,11.609,0,1,1,9.665,32.015a11.647,11.647,0,0,1,6.1-10.271.728.728,0,0,0,.381-.642v-.729h1.441v9.459H16.151v1.455h1.441v1.455h1.441V31.287h4.324v1.455H24.8V31.287H26.24V29.832H24.8V20.373H26.24V21.1a.728.728,0,0,0,.381.642Zm-3.264-1.371v9.459H19.033V20.373Zm2.883-1.455H16.151V17.463H26.24Zm-10.089-2.91V14.552H26.24v1.455Zm1.441-2.91V11.642H24.8V13.1Zm5.632-2.91H19.167a2.142,2.142,0,0,1,4.058,0Zm0,0" transform="translate(112 102)" fill="#fe9126" stroke="#fe9126" stroke-width="0.6"/>
    <g id="electronics" transform="translate(116 118.517)">
      <path id="Path_9" data-name="Path 9" d="M125.211,320a5.215,5.215,0,0,0-5.136,6.092,1.3,1.3,0,0,0,.008.878l3.908,10.422a1.3,1.3,0,0,0,2.441,0l3.908-10.422a1.3,1.3,0,0,0,.008-.878A5.214,5.214,0,0,0,125.211,320Zm0,2.605a2.608,2.608,0,0,1,2.605,2.605h-5.211A2.608,2.608,0,0,1,125.211,322.605Zm0,10.619-2.028-5.409h4.057Zm0,0" transform="translate(-100.673 -268.816)" fill="#fe9126" stroke="#fff" stroke-width="0.7"/>
      <path id="Path_10" data-name="Path 10" d="M78.71,0H37.419a1.29,1.29,0,0,0-1.29,1.288V30.907H1.29A1.29,1.29,0,0,0,0,32.195V73.4a1.29,1.29,0,0,0,1.29,1.288h1.29v3.863a1.29,1.29,0,0,0,1.29,1.288h41.29a1.29,1.29,0,0,0,1.29-1.288V74.692H72.258v3.863a1.29,1.29,0,0,0,1.29,1.288H78.71A1.29,1.29,0,0,0,80,78.555V1.288A1.29,1.29,0,0,0,78.71,0Zm-1.29,2.576v23.18H38.71V2.576ZM38.71,28.331h38.71V72.116H49.032V43.785H74.839V41.209H49.032V38.634H74.839V36.058H49.032V33.483H74.839V30.907H38.71ZM2.581,64.39H12.9v2.576H2.581ZM38.71,41.209H30.968V38.634H38.71Zm-10.323,0H20.645V38.634h7.742Zm-10.323,0H10.323V38.634h7.742Zm28.387,2.576v2.576H2.581V43.785Zm0,23.18H36.129V64.39H46.452Zm0-33.483v7.727H41.29V37.346A1.29,1.29,0,0,0,40,36.058H9.032a1.29,1.29,0,0,0-1.29,1.288v3.863H2.581V33.483ZM43.871,77.268H5.161V74.692h38.71ZM2.581,72.116V69.541H14.194a1.29,1.29,0,0,0,1.29-1.288V63.1a1.29,1.29,0,0,0-1.29-1.288H2.581V48.936H46.452V61.814H34.839a1.29,1.29,0,0,0-1.29,1.288v5.151a1.29,1.29,0,0,0,1.29,1.288H46.452v2.576Zm72.258,5.151V74.692h2.581v2.576Zm0,0" transform="translate(0 0)" fill="#fe9126" stroke="#fff" stroke-width="0.7"/>
      <path id="Path_11" data-name="Path 11" d="M257.3,39.816H270.33a1.3,1.3,0,0,0,1.3-1.3V33.3a1.3,1.3,0,0,0-1.3-1.3H257.3a1.3,1.3,0,0,0-1.3,1.3v5.211A1.3,1.3,0,0,0,257.3,39.816Zm1.3-5.211h10.422v2.605H258.605Zm0,0" transform="translate(-214.805 -26.789)" fill="#fe9126" stroke="#fff" stroke-width="0.7"/>
      <path id="Path_12" data-name="Path 12" d="M369.3,39.816H382.33a1.3,1.3,0,0,0,1.3-1.3V33.3a1.3,1.3,0,0,0-1.3-1.3H369.3a1.3,1.3,0,0,0-1.3,1.3v5.211A1.3,1.3,0,0,0,369.3,39.816Zm1.3-5.211h10.422v2.605H370.605Zm0,0" transform="translate(-308.843 -26.789)" fill="#fe9126" stroke="#fff" stroke-width="0.7"/>
      <path id="Path_13" data-name="Path 13" d="M257.3,103.816H270.33a1.3,1.3,0,0,0,1.3-1.3V97.3a1.3,1.3,0,0,0-1.3-1.3H257.3a1.3,1.3,0,0,0-1.3,1.3v5.211A1.3,1.3,0,0,0,257.3,103.816Zm1.3-5.211h10.422v2.605H258.605Zm0,0" transform="translate(-214.805 -80.566)" fill="#fe9126" stroke="#fff" stroke-width="0.7"/>
      <path id="Path_14" data-name="Path 14" d="M369.3,103.816H382.33a1.3,1.3,0,0,0,1.3-1.3V97.3a1.3,1.3,0,0,0-1.3-1.3H369.3a1.3,1.3,0,0,0-1.3,1.3v5.211A1.3,1.3,0,0,0,369.3,103.816Zm1.3-5.211h10.422v2.605H370.605Zm0,0" transform="translate(-308.843 -80.566)" fill="#fe9126" stroke="#fff" stroke-width="0.7"/>
      <path id="Path_15" data-name="Path 15" d="M356.461,310.132l-1.842-1.842-4.829,4.829h-2.066v-2.066l4.829-4.829-1.842-1.842-2.987,2.987V304h-2.605v3.369l-2.987-2.987-1.842,1.842,4.829,4.829v2.066h-2.066l-4.829-4.829-1.842,1.842,2.987,2.987H336v2.605h3.369l-2.987,2.987,1.842,1.842,4.829-4.829h2.066v2.066l-4.829,4.829,1.842,1.842,2.987-2.987v3.369h2.605v-3.369l2.987,2.987,1.842-1.842-4.829-4.829v-2.066h2.066l4.829,4.829,1.842-1.842-2.987-2.987h3.369v-2.605h-3.369Zm0,0" transform="translate(-282.054 -255.421)" fill="#fe9126" stroke="#fff" stroke-width="0.7"/>
    </g>
  </g>
</svg>
