<svg xmlns="http://www.w3.org/2000/svg" width="72.821" height="97.289" viewBox="0 0 72.821 97.289">
  <g id="Group_14" data-name="Group 14" transform="translate(-478.249 -101.082)">
    <g id="shirt_3_" data-name="shirt (3)" transform="translate(510 152.605)">
      <path id="Path_39" data-name="Path 39" d="M96.288,10.728,91.26,6.72a1.385,1.385,0,0,1-.524-1.089V2.726A2.729,2.729,0,0,0,88.01,0H72.3a2.729,2.729,0,0,0-2.726,2.726V5.631a1.385,1.385,0,0,1-.524,1.089l-5.027,4.008A2.712,2.712,0,0,0,63,12.859V35.825a.667.667,0,0,0,1.333,0V12.859a1.385,1.385,0,0,1,.524-1.089c.134-.142,5.506-4.313,5.4-4.366l2.692,6.041a1.008,1.008,0,0,0,1.812.04L76.2,10.6,78,13.867,75.9,28.173a.667.667,0,1,0,1.319.193L79.267,14.4h1.781l3,20.486a.87.87,0,0,1-.278.773L80.742,38.4a.869.869,0,0,1-1.17,0L76.546,35.66a.87.87,0,0,1-.278-.773l.5-3.41a.667.667,0,0,0-1.319-.193l-.5,3.41a2.2,2.2,0,0,0,.7,1.955l3.026,2.738a2.2,2.2,0,0,0,2.959,0l3.026-2.738a2.2,2.2,0,0,0,.7-1.955L82.317,13.867,84.109,10.6l1.445,2.891a.994.994,0,0,0,.9.554h.023a.994.994,0,0,0,.894-.594l2.692-6.041c-.139.022,5.288,4.248,5.4,4.366a1.385,1.385,0,0,1,.524,1.089v5.453a.667.667,0,1,0,1.333,0V12.859a2.712,2.712,0,0,0-1.027-2.131ZM73.88,12.263,70.912,5.6V2.726a1.387,1.387,0,0,1,.394-.968L73.33,3.441a.667.667,0,1,0,.852-1.026l-1.3-1.082H87.433L82.405,5.512h-4.5l-1.326-1.1a.667.667,0,0,0-.852,1.026l1.1.918Zm7.355.8H79.079L76.93,9.144l1.15-2.3h4.154l1.15,2.3Zm5.2-.8-2.955-5.91,5.53-4.6a1.387,1.387,0,0,1,.394.968V5.6Z" transform="translate(-63 0)" fill="#fe9126" stroke="#fe9126" stroke-width="0.5"/>
      <path id="Path_40" data-name="Path 40" d="M96.647,233.5a.667.667,0,0,0-.667.667v21.365a1.394,1.394,0,0,1-1.392,1.392H65.726a1.394,1.394,0,0,1-1.392-1.392v-3.852a.667.667,0,0,0-1.333,0v3.852a2.729,2.729,0,0,0,2.726,2.726H94.588a2.729,2.729,0,0,0,2.726-2.726V234.167A.667.667,0,0,0,96.647,233.5Z" transform="translate(-63 -212.743)" fill="#fe9126" stroke="#fe9126" stroke-width="0.5"/>
    </g>
    <path id="long-tie" d="M103.095,0H86.416a.666.666,0,0,0-.666.666V3.511a.666.666,0,0,0,.179.455l4.486,4.8a.666.666,0,0,0,.486.211l.059,0a.666.666,0,0,0,.5-.3l.443-.684.745,1.727-1.48,16.705a.666.666,0,0,0,.254.584l2.923,2.282a.666.666,0,0,0,.819,0l2.923-2.282a.666.666,0,0,0,.254-.584L96.862,9.718l.745-1.727.443.684a.666.666,0,0,0,.5.3l.059,0a.666.666,0,0,0,.486-.211l4.486-4.8a.666.666,0,0,0,.179-.455V.666A.666.666,0,0,0,103.095,0ZM94.755,27.919,92.528,26.18l1.409-15.905h1.638L96.983,26.18Zm.99-18.976H93.765l-.991-2.3.915-1.413h2.132l.915,1.413ZM98.7,7.235l-.654-1.01,0,0L97.127,4.8,100.35,2.98a.666.666,0,0,0-.655-1.16L96.009,3.9H93.5L89.816,1.821a.666.666,0,0,0-.655,1.16L92.384,4.8l-.921,1.423,0,0-.654,1.01L87.082,3.249V1.332h15.347V3.249Z" transform="translate(396.75 101.182)" fill="#fe9126" stroke="#fe9126" stroke-width="0.2"/>
    <g id="pilot-sunglasses" transform="translate(510 134.969)">
      <g id="Group_9" data-name="Group 9" transform="translate(0 0)">
        <g id="Group_6" data-name="Group 6" transform="translate(4.49 3.045)">
          <path id="Path_34" data-name="Path 34" d="M43.133,161.816a.408.408,0,0,1-.408-.408,3.116,3.116,0,0,1,2.72-3.2.408.408,0,1,1,.093.811,2.338,2.338,0,0,0-2,2.386.408.408,0,0,1-.408.409Z" transform="translate(-42.725 -158.207)" fill="#fe9126" stroke="#fe9126" stroke-width="0.7"/>
        </g>
        <g id="Group_8" data-name="Group 8" transform="translate(0 0)">
          <path id="Path_35" data-name="Path 35" d="M33.3,136.914h-.677a4.217,4.217,0,0,0-2-2.727,11.32,11.32,0,0,0-4.984-1.02,15.872,15.872,0,0,0-2.47.194H11.407a15.872,15.872,0,0,0-2.47-.194,11.32,11.32,0,0,0-4.984,1.02,4.217,4.217,0,0,0-2,2.727H1.28a1.28,1.28,0,0,0,0,2.56h.365c.029,1.507.3,3.524,1.4,4.731a5.074,5.074,0,0,0,3.791,1.789,5.135,5.135,0,0,0,1.849-.356c1.821-.7,4.416-3.281,6.034-6a6.865,6.865,0,0,0,.8-1.926.4.4,0,0,0,.129.023.408.408,0,0,0,.408-.408v-.978c.077-.094.363-.341,1.234-.341s1.156.247,1.234.341v.978a.408.408,0,0,0,.408.408.4.4,0,0,0,.129-.023,6.858,6.858,0,0,0,.8,1.925c1.619,2.719,4.213,5.3,6.035,6a5.129,5.129,0,0,0,1.849.356,5.074,5.074,0,0,0,3.791-1.789c1.1-1.206,1.367-3.223,1.4-4.731H33.3a1.28,1.28,0,1,0,0-2.56ZM1.661,138.657H1.28a.463.463,0,0,1,0-.927h.492A9.146,9.146,0,0,0,1.661,138.657Zm12.352.563c-1.511,2.538-3.983,5.022-5.626,5.656a4.32,4.32,0,0,1-1.555.3,4.279,4.279,0,0,1-3.187-1.522A6.566,6.566,0,0,1,2.46,139.39s-.118-3.462,1.865-4.476a10.515,10.515,0,0,1,4.612-.931c2.527,0,4.708.633,5.356,1.244C15.1,135.986,14.985,137.59,14.013,139.22Zm5.049-3.488c-.263-.257-.617-.541-1.774-.541s-1.507.284-1.771.542a2.447,2.447,0,0,0-.664-1.1,2.971,2.971,0,0,0-.674-.456H20.4a2.97,2.97,0,0,0-.674.456A2.446,2.446,0,0,0,19.062,135.732Zm13.057,3.659a6.566,6.566,0,0,1-1.185,4.264,4.118,4.118,0,0,1-4.742,1.221c-1.644-.633-4.115-3.118-5.627-5.656-.971-1.629-1.084-3.233-.28-3.992.648-.611,2.829-1.244,5.356-1.244a10.515,10.515,0,0,1,4.612.931C32.232,135.925,32.119,139.387,32.119,139.39Zm1.18-.733h-.381a9.148,9.148,0,0,0-.111-.927H33.3a.463.463,0,0,1,0,.927Z" transform="translate(0 -133.167)" fill="#fe9126" stroke="#fe9126" stroke-width="0.7"/>
          <g id="Group_7" data-name="Group 7" transform="translate(26.914 3.045)">
            <path id="Path_36" data-name="Path 36" d="M344.538,161.814h0a.408.408,0,0,1-.408-.408,2.353,2.353,0,0,0-2-2.387.408.408,0,1,1,.093-.811,3.116,3.116,0,0,1,2.72,3.2A.408.408,0,0,1,344.538,161.814Z" transform="translate(-341.771 -158.206)" fill="#fe9126" stroke="#fe9126" stroke-width="0.7"/>
          </g>
        </g>
      </g>
    </g>
    <path id="hat" d="M37.575,13.7a39.1,39.1,0,0,0-1.1-7.3C35.351,2.153,33.583,0,31.222,0a6.014,6.014,0,0,0-5.01,2.572c-.8.917-1.373,1.58-2.552,1.58s-1.755-.663-2.552-1.58A6.015,6.015,0,0,0,16.1,0a3.52,3.52,0,0,0-1.051.159A.7.7,0,0,0,15.465,1.5a2.112,2.112,0,0,1,.632-.1,4.655,4.655,0,0,1,3.95,2.089A4.584,4.584,0,0,0,23.66,5.558a4.584,4.584,0,0,0,3.613-2.063,4.652,4.652,0,0,1,3.949-2.089c2.647,0,4.1,4.829,4.7,9.722a28.632,28.632,0,0,1-12.265,2.78,28.639,28.639,0,0,1-12.27-2.782c.4-3.214,1.154-6.295,2.321-8.091a.7.7,0,1,0-1.179-.765C10.821,4.9,10,9.6,9.739,13.7,3.541,15.258,0,17.739,0,20.546c0,2.381,2.558,4.549,7.2,6.106a53.848,53.848,0,0,0,16.457,2.29A54.119,54.119,0,0,0,40,26.691a.7.7,0,0,0-.441-1.335,52.693,52.693,0,0,1-15.9,2.18,52.431,52.431,0,0,1-16.01-2.217C3.681,23.989,1.4,22.249,1.4,20.546c0-2,3.142-4.024,8.265-5.373-.016.484-.023.954-.023,1.4a.7.7,0,0,0,.349.607A29.271,29.271,0,0,0,23.66,20.516a29.275,29.275,0,0,0,13.663-3.331.7.7,0,0,0,.349-.607c0-.307,0-.791-.025-1.405,5.124,1.349,8.267,3.376,8.267,5.374,0,1.3-1.36,2.651-3.829,3.815a.7.7,0,0,0,.6,1.272c3.032-1.43,4.634-3.189,4.634-5.087,0-2.807-3.543-5.289-9.745-6.844ZM23.66,19.11a28.854,28.854,0,0,1-12.606-2.952c.012-1.137.07-2.341.178-3.55A30.279,30.279,0,0,0,23.66,15.313a30.267,30.267,0,0,0,12.423-2.7c.111,1.237.17,2.446.182,3.55a28.761,28.761,0,0,1-12.6,2.951Zm0,0" transform="translate(503.501 101.67)" fill="#fe9126" stroke="#fe9126" stroke-width="0.5"/>
    <g id="watch" transform="translate(470.75 163.414)">
      <path id="Path_41" data-name="Path 41" d="M18.193,34.773H25.84a.546.546,0,0,0,.546-.546V29.578a12.012,12.012,0,0,0,0-22.382V2.546A.546.546,0,0,0,25.84,2H18.193a.546.546,0,0,0-.546.546V7.2a12.012,12.012,0,0,0,0,22.382v4.649A.546.546,0,0,0,18.193,34.773Zm2.731-1.092V32.589h2.185v1.092Zm4.37,0H24.2V32.042a.546.546,0,0,0-.546-.546H20.378a.546.546,0,0,0-.546.546v1.639H18.739V29.945a11.948,11.948,0,0,0,6.555,0ZM23.109,3.092V4.185H20.924V3.092Zm-4.37,0h1.092V4.731a.546.546,0,0,0,.546.546h3.277a.546.546,0,0,0,.546-.546V3.092h1.092V6.828a11.948,11.948,0,0,0-6.555,0ZM11.092,18.387A10.924,10.924,0,1,1,22.017,29.311,10.924,10.924,0,0,1,11.092,18.387Z" transform="translate(-0.749)" fill="#fe9126" stroke="#fe9126" stroke-width="0.3"/>
      <path id="Path_42" data-name="Path 42" d="M33.664,23.832a9.832,9.832,0,1,0-9.832,9.832A9.832,9.832,0,0,0,33.664,23.832Zm-18.572,0a8.692,8.692,0,0,1,2.193-5.771l.7.7.772-.772-.7-.7a8.689,8.689,0,0,1,11.545,0l-.7.7.772.772.7-.7a8.689,8.689,0,0,1,0,11.545l-.7-.7-.772.772.7.7a8.689,8.689,0,0,1-11.545,0l.7-.7-.772-.772-.7.7A8.694,8.694,0,0,1,15.092,23.832Z" transform="translate(-2.564 -5.445)" fill="#fe9126" stroke="#fe9126" stroke-width="0.3"/>
      <path id="Path_43" data-name="Path 43" d="M30.639,21.277A1.639,1.639,0,1,0,29,19.639,1.639,1.639,0,0,0,30.639,21.277Zm0-2.185a.546.546,0,1,1-.546.546A.546.546,0,0,1,30.639,19.092Z" transform="translate(-9.371 -7.26)" fill="#fe9126" stroke="#fe9126" stroke-width="0.3"/>
      <path id="Path_44" data-name="Path 44" d="M30.639,40a1.639,1.639,0,1,0,1.639,1.639A1.639,1.639,0,0,0,30.639,40Zm0,2.185a.546.546,0,1,1,.546-.546A.546.546,0,0,1,30.639,42.185Z" transform="translate(-9.371 -17.243)" fill="#fe9126" stroke="#fe9126" stroke-width="0.3"/>
      <path id="Path_45" data-name="Path 45" d="M17.639,32.277A1.639,1.639,0,1,0,16,30.639,1.639,1.639,0,0,0,17.639,32.277Zm0-2.185a.546.546,0,1,1-.546.546A.546.546,0,0,1,17.639,30.092Z" transform="translate(-3.472 -12.252)" fill="#fe9126" stroke="#fe9126" stroke-width="0.3"/>
      <path id="Path_46" data-name="Path 46" d="M43.639,29a1.639,1.639,0,1,0,1.639,1.639A1.639,1.639,0,0,0,43.639,29Zm0,2.185a.546.546,0,1,1,.546-.546A.546.546,0,0,1,43.639,31.185Z" transform="translate(-15.27 -12.252)" fill="#fe9126" stroke="#fe9126" stroke-width="0.3"/>
      <path id="Path_47" data-name="Path 47" d="M26.41,27.6a1.639,1.639,0,0,0,3.277,0,1.612,1.612,0,0,0-.164-.7l3.828-3.828-.772-.772L28.751,26.12a1.58,1.58,0,0,0-1.4,0l-3.282-3.282-.772.772,3.281,3.282a1.612,1.612,0,0,0-.164.7Zm2.185,0a.546.546,0,1,1-.546-.546A.546.546,0,0,1,28.6,27.6Z" transform="translate(-6.781 -9.208)" fill="#fe9126" stroke="#fe9126" stroke-width="0.3"/>
    </g>
    <path id="XMLID_562_" d="M26.807,88.761l-1.549-12.83V72.75a.6.6,0,0,0-.595-.595H2.148a.6.6,0,0,0-.595.595v3.181L0,88.761a.595.595,0,0,0,.591.666H11.224a.6.6,0,0,0,.581-.468l.972-4.452,2.511-.547a.6.6,0,0,0,.31-.178,11.455,11.455,0,0,0,3.147-7.221h5.39l1.41,11.676H16.066l-.633-2.9a.595.595,0,0,0-1.162.254l.735,3.365a.6.6,0,0,0,.581.468H26.216a.595.595,0,0,0,.591-.666ZM14.849,82.838l-2.7.588a.6.6,0,0,0-.455.454l-.951,4.357H1.266l1.41-11.676H8.254a11.358,11.358,0,0,0,2.33,6.245.595.595,0,0,0,.95-.716,10.185,10.185,0,0,1-2.088-5.528h8.108A10.26,10.26,0,0,1,14.849,82.838Zm9.219-7.467H2.743V73.345H24.068Z" transform="translate(478.5 66.178)" fill="#fe9126" stroke="#fe9126" stroke-width="0.5"/>
  </g>
</svg>
