<svg xmlns="http://www.w3.org/2000/svg" width="118.869" height="118.886" viewBox="0 0 118.869 118.886">
  <defs>
    <style>
      .cls-1 {
        fill: #fff;
      }
    </style>
  </defs>
  <g id="exchange" transform="translate(-0.037 0)">
    <g id="Group_8" data-name="Group 8" transform="translate(20.003 16.433)">
      <g id="Group_7" data-name="Group 7">
        <path id="Path_23" data-name="Path 23" class="cls-1" d="M162.04,90.215l-33.8-18.727a5.637,5.637,0,0,0-5.494,0h0l-33.8,18.727a5.67,5.67,0,0,0-2.921,4.958v37.219a5.67,5.67,0,0,0,2.921,4.958l33.8,18.727a5.636,5.636,0,0,0,5.494,0l33.8-18.727a5.67,5.67,0,0,0,2.921-4.958V95.172A5.67,5.67,0,0,0,162.04,90.215ZM125,75.549a1.017,1.017,0,0,1,.993,0l13.5,7.478-32.552,18.036L93.121,93.209ZM123.172,151,91.2,133.288a1.024,1.024,0,0,1-.528-.9V97.156l15.085,8.576.011.006,17.407,9.9V151Zm-11.508-47.253,32.614-18.07L158.3,93.452l-32.794,18.17Zm48.654,28.641a1.025,1.025,0,0,1-.528.9L127.814,151V115.652l32.5-18.009Z" transform="translate(-86.025 -70.773)"/>
      </g>
    </g>
    <g id="Group_10" data-name="Group 10" transform="translate(27.432 52.026)">
      <g id="Group_9" data-name="Group 9">
        <path id="Path_24" data-name="Path 24" class="cls-1" d="M133.764,231.123l-12.3-6.775a2.322,2.322,0,0,0-3.442,2.034V236.2a2.322,2.322,0,0,0,1.2,2.034l12.3,6.775a2.322,2.322,0,0,0,3.441-2.034v-9.815A2.321,2.321,0,0,0,133.764,231.123Zm-3.442,7.919-7.659-4.218v-4.514l7.659,4.218v4.513Z" transform="translate(-118.02 -224.06)"/>
      </g>
    </g>
    <g id="Group_12" data-name="Group 12" transform="translate(43.268 79.959)">
      <g id="Group_11" data-name="Group 11">
        <path id="Path_25" data-name="Path 25" class="cls-1" d="M195.813,348.034l-6.151-3.388a2.322,2.322,0,1,0-2.24,4.067l6.151,3.388a2.322,2.322,0,0,0,2.24-4.067Z" transform="translate(-186.22 -344.358)"/>
      </g>
    </g>
    <g id="Group_14" data-name="Group 14" transform="translate(34.491 16.956)">
      <g id="Group_13" data-name="Group 13">
        <path id="Path_26" data-name="Path 26" class="cls-1" d="M221.988,81.273l4.284-4.284a2.321,2.321,0,0,0-1.642-3.963H213.1a2.322,2.322,0,0,0-2.322,2.322V86.879a2.321,2.321,0,0,0,3.963,1.642l3.911-3.911a54.807,54.807,0,0,1-66.991,81.215,2.322,2.322,0,0,0-1.841,4.263,59.27,59.27,0,0,0,23.527,4.869,60.007,60.007,0,0,0,10.762-.976,59.448,59.448,0,0,0,37.879-92.706Zm-6.567,0v-3.6h3.6Z" transform="translate(-148.418 -73.026)"/>
      </g>
    </g>
    <g id="Group_16" data-name="Group 16" transform="translate(27.431 105.908)">
      <g id="Group_15" data-name="Group 15">
        <path id="Path_27" data-name="Path 27" class="cls-1" d="M121.636,456.5l-.091-.055a2.322,2.322,0,1,0-2.415,3.966l.091.055a2.322,2.322,0,1,0,2.415-3.966Z" transform="translate(-118.016 -456.11)"/>
      </g>
    </g>
    <g id="Group_18" data-name="Group 18" transform="translate(87.06 8.451)">
      <g id="Group_17" data-name="Group 17">
        <path id="Path_28" data-name="Path 28" class="cls-1" d="M378.468,36.811l-.115-.071a2.322,2.322,0,1,0-2.433,3.955l.115.071a2.322,2.322,0,0,0,2.433-3.955Z" transform="translate(-374.814 -36.395)"/>
      </g>
    </g>
    <g id="Group_20" data-name="Group 20" transform="translate(0.037 0)">
      <g id="Group_19" data-name="Group 19" transform="translate(0 0)">
        <path id="Path_29" data-name="Path 29" class="cls-1" d="M82.92,4.812a59.449,59.449,0,0,0-72.038,88.87L6.6,97.966a2.321,2.321,0,0,0,1.642,3.963H19.771a2.322,2.322,0,0,0,2.322-2.322V88.076a2.321,2.321,0,0,0-3.963-1.642l-3.912,3.912A54.807,54.807,0,0,1,81.089,9.08a2.322,2.322,0,1,0,1.83-4.267ZM17.449,93.681v3.6h-3.6Z" transform="translate(-0.037 0)"/>
      </g>
    </g>
  </g>
</svg>
