<svg xmlns="http://www.w3.org/2000/svg" xmlns:xlink="http://www.w3.org/1999/xlink" width="282" height="170" viewBox="0 0 282 170">
    <defs>
        <linearGradient id="c3crcbl5uc" x1="2.339%" x2="105.303%" y1="60.657%" y2="49.381%">
            <stop offset="0%" stop-color="#FF8074"/>
            <stop offset="100%" stop-color="#005BFF"/>
        </linearGradient>
        <linearGradient id="bszs0kumzd" x1="2.339%" x2="105.303%" y1="58.521%" y2="49.505%">
            <stop offset="0%" stop-color="#0205F5"/>
            <stop offset="100%" stop-color="#005BFF"/>
        </linearGradient>
        <rect id="hjblv8kr7a" width="280" height="168" x="0" y=".28" rx="8"/>
    </defs>
    <g fill="none" fill-rule="evenodd">
        <g transform="translate(.934 .72) translate(.066)">
            <mask id="ykhcdvagbb" fill="#fff">
                <use xlink:href="#hjblv8kr7a"/>
            </mask>
            <g mask="url(#ykhcdvagbb)">
                <g transform="rotate(24 151.229 108.901)">
                    <path fill="url(#c3crcbl5uc)" d="M165.092 164.726c53.47-.282 96.95-26.784 97.117-59.194.166-32.41-43.045-58.454-96.514-58.172-53.47.282-144.93-18.565-151.477 36.058-6.548 54.622 97.404 81.59 150.874 81.308z" opacity=".174" transform="rotate(-23 138.067 104.585)"/>
                    <ellipse cx="155.351" cy="45.497" fill="url(#bszs0kumzd)" opacity=".07" rx="87.638" ry="37.965" transform="rotate(-5 155.35 45.497)"/>
                </g>
            </g>
        </g>
        <g>
            <g transform="translate(.934 .72) translate(63.066 30.28) translate(8)">
                <g fill="#D2D8DA">
                    <path d="M0 1.253L28.841 1.253 28.841 0 0 0zM0 4.155L28.841 4.155 28.841 2.902 0 2.902z" transform="translate(13.021 44.935)"/>
                </g>
                <g fill="#D2D8DA">
                    <path d="M0 1.253L28.841 1.253 28.841 0 0 0zM0 4.155L28.841 4.155 28.841 2.902 0 2.902z" transform="translate(13.021 94.543)"/>
                </g>
                <g fill="#D2D8DA">
                    <path d="M0 1.253L28.841 1.253 28.841 0 0 0zM0 4.155L28.841 4.155 28.841 2.902 0 2.902z" transform="translate(60.32 44.935)"/>
                </g>
                <g fill="#D2D8DA">
                    <path d="M0 1.253L28.841 1.253 28.841 0 0 0zM0 4.155L28.841 4.155 28.841 2.902 0 2.902z" transform="translate(60.32 94.543)"/>
                </g>
                <path fill="#E9ECFC" d="M102.675 102.99c0 1.187-1.16 2.16-2.577 2.16H2.578c-1.418 0-2.578-.973-2.578-2.16V2.31C0 1.122 1.16.15 2.578.15h97.52c1.417 0 2.577.972 2.577 2.16v100.68zM157 102.84c0 1.188-.497 2.16-1.105 2.16h-41.79c-.608 0-1.105-.972-1.105-2.16V2.16c0-1.188.497-2.16 1.105-2.16h41.79c.608 0 1.105.972 1.105 2.16v100.68z"/>
                <g stroke="#3325F0" stroke-width=".9" transform="translate(12.61 11.317)">
                    <rect width="28.841" height="28.841" fill="#FFF" rx="1.8"/>
                    <g>
                        <path fill="#BFBAFF" d="M8.204.45c.058.807.275 1.42.623 1.856.438.547 1.087.843 1.971.843.884 0 1.533-.296 1.971-.843.348-.435.565-1.05.623-1.856h2.544c.382 0 .747.162 1.003.447h0l3.072 3.413c.25.278.363.63.345.974-.018.343-.166.679-.44.928h0l-.815.68c-.23.192-.508.297-.792.312-.283.015-.572-.06-.82-.225h0l-1.202-.8v8.219c0 .372-.15.71-.395.954-.244.244-.582.395-.954.395h0-7.74c-.372 0-.71-.15-.954-.395-.244-.244-.395-.582-.395-.954h0v-8.22l-1.286.857c-.233.156-.502.231-.77.227-.268-.005-.535-.088-.763-.251h0L1.9 6.204c-.302-.217-.49-.536-.546-.876-.056-.334.013-.689.22-.988h0L4.657.897C4.913.612 5.278.45 5.661.45h0z" transform="translate(3.461 6.922)"/>
                        <path stroke-linecap="square" d="M19.797 4.589L1.8 4.589" transform="translate(3.461 6.922) matrix(-1 0 0 1 21.596 0)"/>
                        <path stroke-linecap="square" d="M16.143 8.099L5.939 8.099M16.143 11.878L5.939 11.878" transform="translate(3.461 6.922)"/>
                    </g>
                </g>
                <g stroke="#3325F0" stroke-width=".9" transform="translate(59.91 11.317)">
                    <rect width="28.795" height="28.795" fill="#FFF" rx="1.8"/>
                    <g>
                        <path fill="#BFBAFF" d="M13.527.45c.373 0 .71.151.954.395.245.245.396.582.396.955h0v17.997c0 .372-.151.71-.396.954-.244.244-.581.396-.954.396h0-3.476c-.357 0-.682-.139-.925-.367-.242-.227-.4-.543-.423-.9h0L7.663 3.238l-1.04 16.644c-.022.356-.18.672-.423.9-.242.227-.568.366-.924.366h0H1.8c-.373 0-.71-.152-.955-.396-.244-.244-.395-.582-.395-.954h0V1.8c0-.373.151-.71.395-.955C1.09.601 1.427.45 1.8.45h0z" transform="translate(6.299 3.6)"/>
                        <path d="M13.527.45c.373 0 .71.151.954.395.245.245.396.582.396.955h0v1.233H.45V1.8c0-.373.151-.71.395-.955C1.09.601 1.427.45 1.8.45h0z" transform="translate(6.299 3.6)"/>
                        <path stroke-linecap="round" stroke-linejoin="round" d="M5.616 3.142L9.711 1.664 8.233 5.76" transform="translate(6.299 3.6) rotate(-45 7.663 3.712)"/>
                        <path stroke-linecap="square" d="M6.299 18.461L0.9 18.461" transform="translate(6.299 3.6) matrix(-1 0 0 1 7.199 0)"/>
                        <path stroke-linecap="square" d="M14.398 18.461L8.999 18.461" transform="translate(6.299 3.6) matrix(-1 0 0 1 23.396 0)"/>
                    </g>
                </g>
                <rect width="28.795" height="28.795" fill="#FFF" stroke="#3325F0" stroke-width=".9" rx="1.8" transform="translate(59.91 60.924)"/>
                <rect width="28.795" height="28.795" fill="#FFF" stroke="#3325F0" stroke-width=".9" rx="1.8" transform="translate(12.61 60.924)"/>
                <path fill="#D2D8DA" d="M120.618 45.034L149.46 45.034 149.46 43.782 120.618 43.782zM120.618 48.495L149.46 48.495 149.46 47.243 120.618 47.243zM13.021 45.034L41.862 45.034 41.862 43.782 13.021 43.782zM13.021 48.495L41.862 48.495 41.862 47.243 13.021 47.243z"/>
                <g fill="#D2D8DA">
                    <path d="M0 1.253L28.841 1.253 28.841 0 0 0zM0 4.714L28.841 4.714 28.841 3.461 0 3.461z" transform="translate(59.91 43.62)"/>
                </g>
                <g fill="#D2D8DA">
                    <path d="M0 1.253L28.841 1.253 28.841 0 0 0zM0 4.714L28.841 4.714 28.841 3.461 0 3.461z" transform="translate(59.91 93.226)"/>
                </g>
                <g fill="#D2D8DA">
                    <path d="M0 1.253L28.841 1.253 28.841 0 0 0zM0 4.714L28.841 4.714 28.841 3.461 0 3.461z" transform="translate(12.61 93.226)"/>
                </g>
                <g fill="#D2D8DA">
                    <path d="M0 1.253L28.841 1.253 28.841 0 0 0zM0 4.714L28.841 4.714 28.841 3.461 0 3.461z" transform="translate(120.618 93.389)"/>
                </g>
                <g stroke="#3325F0" stroke-width=".9" transform="translate(120.207 10.163)">
                    <rect width="28.841" height="28.841" fill="#FFF" rx="1.8"/>
                    <g>
                        <path fill="#BFBAFF" d="M8.204.45c.058.807.275 1.42.623 1.856.438.547 1.087.843 1.971.843.884 0 1.533-.296 1.971-.843.348-.435.565-1.05.623-1.856h2.544c.382 0 .747.162 1.003.447h0l3.072 3.413c.25.278.363.63.345.974-.018.343-.166.679-.44.928h0l-.815.68c-.23.192-.508.297-.792.312-.283.015-.572-.06-.82-.225h0l-1.202-.8v8.219c0 .372-.15.71-.395.954-.244.244-.582.395-.954.395h0-7.74c-.372 0-.71-.15-.954-.395-.244-.244-.395-.582-.395-.954h0v-8.22l-1.286.857c-.233.156-.502.231-.77.227-.268-.005-.535-.088-.763-.251h0L1.9 6.204c-.302-.217-.49-.536-.546-.876-.056-.334.013-.689.22-.988h0L4.657.897C4.913.612 5.278.45 5.661.45h0z" transform="translate(3.461 6.922)"/>
                        <path stroke-linecap="square" d="M19.797 4.589L1.8 4.589" transform="translate(3.461 6.922) matrix(-1 0 0 1 21.596 0)"/>
                        <path stroke-linecap="square" d="M16.143 8.099L5.939 8.099M16.143 11.878L5.939 11.878" transform="translate(3.461 6.922)"/>
                    </g>
                </g>
                <g transform="translate(120.207 59.77)">
                    <rect width="28.795" height="28.795" fill="#FFF" stroke="#3325F0" stroke-width=".9" rx="1.8"/>
                    <g transform="translate(3.461 5.768)">
                        <path fill="#BFBAFF" stroke="#3325F0" stroke-width=".9" d="M8.422.45l2.376 2.97L13.174.45h2.762c.382 0 .747.162 1.003.447h0l3.072 3.413c.25.278.363.63.345.974-.018.343-.166.679-.44.928h0l-.815.68c-.23.192-.508.297-.792.312-.283.015-.572-.06-.82-.225h0l-1.202-.8v8.219c0 .372-.15.71-.395.954-.244.244-.582.395-.954.395h0-7.74c-.372 0-.71-.15-.954-.395-.244-.244-.395-.582-.395-.954h0v-8.22l-1.286.857c-.233.156-.502.231-.77.227-.268-.005-.535-.088-.763-.251h0L1.9 6.204c-.302-.217-.49-.536-.546-.876-.056-.334.013-.689.22-.988h0L4.657.897C4.913.612 5.278.45 5.661.45h2.761z"/>
                        <path stroke="#3325F0" stroke-linecap="round" stroke-linejoin="round" stroke-width=".9" d="M10.798 3.149L10.798 7.199"/>
                        <circle cx="12.058" cy="4.769" r="1" fill="#3325F0"/>
                        <circle cx="12.058" cy="6.389" r="1" fill="#3325F0"/>
                    </g>
                </g>
            </g>
            <g fill-rule="nonzero">
                <path fill="#3325F0" d="M16.75 5.014C15.63 3.734 13.215 3.728 6.963.07c-.34-.198-.765.052-.765.455 0 1.442-1.161 2.616-2.588 2.616-1.428 0-2.59-1.174-2.59-2.616C1.022.234.794 0 .512 0 .229 0 0 .235 0 .524V9.94c0 .289.229.523.51.523h16.42c.281 0 .51-.234.51-.523V7.848c0-1.294-.113-2.172-.69-2.834zm-.332 4.404H1.022V8.37h15.396v1.047z" transform="translate(.934 .72) translate(63.066 30.28) translate(27.364 69.621)"/>
                <path fill="#BFBAFF" d="M1.022 3.074c.656.685 1.574 1.112 2.589 1.112 1.706 0 3.139-1.207 3.514-2.822.303.172.595.335.88.49l-.711 1.393c-.13.257-.034.573.216.706.25.134.559.035.69-.221l.71-1.394c.396.207.773.397 1.13.573l-.649 1.425c-.12.262-.009.574.247.696.255.121.56.01.68-.253l.648-1.426c.414.192.799.364 1.157.518l-.583 1.455c-.108.267.017.573.278.682.261.11.56-.018.667-.285l.583-1.454c2.859 1.173 3.295 1.161 3.344 3.056H1.022V3.074z" transform="translate(.934 .72) translate(63.066 30.28) translate(27.364 69.621)"/>
            </g>
            <g fill-rule="nonzero">
                <path fill="#3325F0" d="M16.35 0H1.09C.489 0 0 .489 0 1.09v8.72c0 .601.489 1.09 1.09 1.09h15.26c.601 0 1.09-.489 1.09-1.09V1.09c0-.601-.489-1.09-1.09-1.09z" transform="translate(.934 .72) translate(63.066 30.28) translate(74.234 69.621)"/>
                <path fill="#BFBAFF" d="M1.09.727h15.26c.2 0 .363.163.363.363v3.575c-.698.397-3.359 1.786-6.794 2.064v-.715c0-.356-.29-.645-.645-.645H8.166c-.356 0-.645.29-.645.645v.715C4.093 6.451 1.426 5.061.727 4.665V1.09c0-.2.163-.363.363-.363z" transform="translate(.934 .72) translate(63.066 30.28) translate(74.234 69.621)"/>
                <path fill="#3325F0" d="M9.193 6.095L9.193 8.188 8.247 8.188 8.247 6.095z" transform="translate(.934 .72) translate(63.066 30.28) translate(74.234 69.621)"/>
                <path fill="#BFBAFF" d="M16.35 10.173H1.09c-.2 0-.363-.163-.363-.363V5.494c.377.198.932.468 1.633.746 1.186.471 3.021 1.052 5.16 1.218v.811c0 .356.29.645.646.645h1.108c.356 0 .645-.29.645-.645v-.811c2.14-.166 3.975-.747 5.16-1.218.702-.278 1.257-.548 1.634-.746V9.81c0 .2-.163.363-.363.363z" transform="translate(.934 .72) translate(63.066 30.28) translate(74.234 69.621)"/>
            </g>
        </g>
    </g>
</svg>
