<svg xmlns="http://www.w3.org/2000/svg" width="65.199" height="104.125" viewBox="0 0 65.199 104.125">
  <g id="Group_20" data-name="Group 20" transform="translate(-970.493 -100.375)">
    <g id="power-plug" transform="translate(970.88 116.696)">
      <path id="Path_37" data-name="Path 37" d="M98.9,166.744a.541.541,0,0,0-.746.172l-2.026,3.238a.542.542,0,0,0,.459.829h1.054l-1.515,2.448a.541.541,0,0,0,.921.57l2.026-3.275a.542.542,0,0,0-.46-.826H97.561l1.508-2.409a.542.542,0,0,0-.172-.746Z" transform="translate(-89.638 -154.63)" fill="#fe9126"/>
      <path id="Path_38" data-name="Path 38" d="M41.655,7.816H35.938a6.664,6.664,0,0,0-6.656,6.656V30.307a3.479,3.479,0,0,1-3.475,3.475H20.367a3.479,3.479,0,0,1-3.475-3.475v-5.5a2.422,2.422,0,0,0,1.16-2.066V21.585a6.7,6.7,0,0,0,3.942-6.1V10.76a2.278,2.278,0,0,0-1.012-4.318h-.566V4.961a.541.541,0,1,0-1.083,0v1.48H18.245V1.627a.544.544,0,0,1,1.088,0v.808a.541.541,0,1,0,1.083,0V1.627a1.627,1.627,0,0,0-3.254,0V6.442h-3.72V1.627a1.627,1.627,0,1,0-3.254,0V6.442H9.621A2.278,2.278,0,0,0,8.609,10.76c0,5.131-.005,4.858.014,5.155A.541.541,0,1,0,9.7,15.846c-.016-.249-.011.038-.011-4.848H20.911v4.486a5.61,5.61,0,0,1-10.6,2.566.541.541,0,1,0-.963.5,6.679,6.679,0,0,0,3.2,3.042v1.157a2.422,2.422,0,0,0,1.16,2.066v5.5a6.664,6.664,0,0,0,6.656,6.656h5.441a6.663,6.663,0,0,0,6.656-6.656V14.472A3.478,3.478,0,0,1,35.938,11h5.717a1.591,1.591,0,0,0,0-3.181ZM11.271,1.627a.544.544,0,0,1,1.088,0V6.442H11.271ZM9.4,9.893l-.027-.005a1.2,1.2,0,0,1,.25-2.364H20.982A1.195,1.195,0,0,1,21.2,9.893C21.017,9.929,9.577,9.927,9.4,9.893Zm4.236,12.073a6.739,6.739,0,0,0,3.335,0v.779a1.343,1.343,0,0,1-1.339,1.339,3.068,3.068,0,0,1-1.085-.071,1.34,1.34,0,0,1-.911-1.267v-.779ZM41.655,9.915H35.938a4.563,4.563,0,0,0-4.557,4.557V30.307a5.579,5.579,0,0,1-5.573,5.573H20.367a5.579,5.579,0,0,1-5.573-5.573V25.16c.148.011.868.011,1.016,0v5.147a4.563,4.563,0,0,0,4.557,4.557h5.441a4.563,4.563,0,0,0,4.557-4.557V14.472A5.579,5.579,0,0,1,35.938,8.9h5.717a.508.508,0,1,1,0,1.016Z" transform="translate(-7.343 0)" fill="#fe9126"/>
    </g>
    <g id="office_1_" data-name="office (1)" transform="translate(970.993 139.952)">
      <path id="Path_25" data-name="Path 25" d="M51.24,114.535H49.1V112.4h9.607a3.2,3.2,0,0,0,3.2-3.2V94.253a3.2,3.2,0,0,0-3.2-3.2H33.093a3.2,3.2,0,0,0-3.2,3.2V109.2a3.2,3.2,0,0,0,3.2,3.2H42.7v2.135H40.565a3.2,3.2,0,0,0-3.2,3.2H19.215V116.67a3.2,3.2,0,0,0-3.2-3.2H12.441L6.453,99.785a3.128,3.128,0,0,0,.933-3.042l7.239-4.61,2.067,3.578,9.244-5.338-2.668-4.622a5.338,5.338,0,0,0-9.634,4.484l-7.4,4.71a3.17,3.17,0,0,0-1.964-.692,3.2,3.2,0,1,0,0,6.405c.077,0,.15-.017.225-.023l5.615,12.832H7.473a3.2,3.2,0,0,0-3.2,3.2v1.068H0v6.4H2.136v7.473H4.271v-7.473H6.406v7.473H8.541v-7.473H55.51v7.473h2.135v-7.473h2.134v7.473h2.135v-7.473h2.135v-6.4H54.442a3.2,3.2,0,0,0-3.2-3.2Zm-34.2-28.889a3.184,3.184,0,0,1,1.6-.427,3.227,3.227,0,0,1,.833.107,3.184,3.184,0,0,1,1.945,1.495l1.6,2.776-5.55,3.2-1.6-2.776a3.2,3.2,0,0,1,1.17-4.375h0ZM3.2,97.455a1.067,1.067,0,1,1,1.068,1.068A1.067,1.067,0,0,1,3.2,97.455Zm29.889-4.27H58.712a1.068,1.068,0,0,1,1.068,1.068v11.742H32.025V94.253a1.068,1.068,0,0,1,1.068-1.068Zm0,17.08a1.067,1.067,0,0,1-1.068-1.068V108.13H59.779V109.2a1.067,1.067,0,0,1-1.068,1.068ZM44.835,112.4H46.97v2.135H44.835Zm-4.27,4.27H51.24a1.067,1.067,0,0,1,1.067,1.068H39.5a1.068,1.068,0,0,1,1.068-1.068Zm-34.159,0A1.067,1.067,0,0,1,7.473,115.6h8.539a1.067,1.067,0,0,1,1.068,1.068v1.068H6.406Zm55.509,3.2v2.135H2.136v-2.135Zm0,0" transform="translate(-0.001 -67.566)" fill="#fe9126" stroke="#fff" stroke-width="1"/>
      <path id="Path_26" data-name="Path 26" d="M147.766,85.574v2.135h8.54v2.134h2.135V87.709h14.945v2.134h2.135V87.709h8.539V85.574Zm0,0" transform="translate(-120.012 -69.562)" fill="#fe9126" stroke="#fff" stroke-width="1"/>
      <path id="Path_27" data-name="Path 27" d="M198.254,15.269V.324H170.5V15.269Zm-6.4-12.81h4.27V13.134h-4.27Zm-6.405,0h4.27V13.134h-4.27Zm-6.405,0h4.27V13.134h-4.27Zm-6.4,10.675V2.459h4.27V13.134Zm0,0" transform="translate(-138.476 -0.324)" fill="#fe9126" stroke="#fff" stroke-width="1"/>
      <path id="Path_28" data-name="Path 28" d="M187.551,51.473h2.135v2.135h-2.135Zm0,0" transform="translate(-152.324 -41.866)" fill="#fe9126" stroke="#fff" stroke-width="1"/>
      <path id="Path_29" data-name="Path 29" d="M221.648,51.473h2.135v2.135h-2.135Zm0,0" transform="translate(-180.017 -41.866)" fill="#fe9126" stroke="#fff" stroke-width="1"/>
      <path id="Path_30" data-name="Path 30" d="M255.75,51.473h2.135v2.135H255.75Zm0,0" transform="translate(-207.713 -41.866)" fill="#fe9126" stroke="#fff" stroke-width="1"/>
      <path id="Path_31" data-name="Path 31" d="M289.852,51.473h2.134v2.135h-2.134Zm0,0" transform="translate(-235.41 -41.866)" fill="#fe9126" stroke="#fff" stroke-width="1"/>
    </g>
    <path id="Icon_doc" d="M21.422,7.4h4.751A3.4,3.4,0,0,1,29.341,11V32.6a3.4,3.4,0,0,1-3.168,3.6H7.168A3.4,3.4,0,0,1,4,32.6V11A3.4,3.4,0,0,1,7.168,7.4h4.751c0-2.982,2.127-5.4,4.751-5.4S21.422,4.418,21.422,7.4Zm-3.168,0A1.7,1.7,0,0,1,16.67,9.2a1.7,1.7,0,0,1-1.584-1.8A1.7,1.7,0,0,1,16.67,5.6,1.7,1.7,0,0,1,18.254,7.4ZM7.168,14.6a1.7,1.7,0,0,1,1.584-1.8H24.589a1.7,1.7,0,0,1,1.584,1.8,1.7,1.7,0,0,1-1.584,1.8H8.751A1.7,1.7,0,0,1,7.168,14.6ZM8.751,20a1.815,1.815,0,0,0,0,3.6H24.589a1.815,1.815,0,0,0,0-3.6Zm0,7.2a1.815,1.815,0,0,0,0,3.6H13.5a1.815,1.815,0,0,0,0-3.6Z" transform="translate(1005.701 100.768)" fill="none" stroke="#fe9126" stroke-width="1.3" fill-rule="evenodd"/>
    <g id="Icon_edit" transform="translate(1007.374 122.56) rotate(180)">
      <path id="Path_87" data-name="Path 87" d="M3.683.381a1.3,1.3,0,0,0-1.842,0L0,2.223,5.525,7.748,7.367,5.906a1.3,1.3,0,0,0,0-1.842Z" transform="translate(13.812 0)" fill="none" stroke="#fe9126" stroke-width="1.25"/>
      <path id="Path_88" data-name="Path 88" d="M17.5,5.525,11.971,0,.381,11.589A1.3,1.3,0,0,0,0,12.51v3.683a1.3,1.3,0,0,0,1.3,1.3H4.986a1.3,1.3,0,0,0,.921-.381Z" transform="translate(0 4.065)" fill="none" stroke="#fe9126" stroke-width="1.25"/>
    </g>
  </g>
</svg>
