<svg xmlns="http://www.w3.org/2000/svg" width="81.873" height="97.249" viewBox="0 0 81.873 97.249">
  <g id="Group_22" data-name="Group 22" transform="translate(-645.001 -103.761)">
    <g id="fashion" transform="translate(650.001 150.17)">
      <path id="Path_19" data-name="Path 19" d="M40.2,23.7c-3.19,0-4.9,2.315-6.483,5.79-2.112,4.633-4.28,7.29-5.947,7.29-.307,0-1.242,0-2.055-1.816a1.324,1.324,0,0,0-1.485-.751,10,10,0,0,0-6.538,4.053,8.365,8.365,0,0,0-1.349,4.29,1.326,1.326,0,0,0,1.327,1.369h9.921c.14,1.107.257,2.2.348,3.248a11.12,11.12,0,0,1-8.2,1.794,36.4,36.4,0,0,1-7.555-2.285c-.981-.375-2-.763-3-1.111a21.024,21.024,0,0,0-7.593-1.42C2.754,34.68,5.521,24.777,7.433,21.3h3.386c-.258,1.355-.549,3.378-.838,5.825a.741.741,0,1,0,1.472.173c.306-2.6.613-4.7.875-6h4.694c.262,1.3.567,3.4.873,6a.741.741,0,1,0,1.472-.173c-.289-2.451-.579-4.467-.836-5.825h3.232c1.183,2.168,2.7,6.863,3.945,12.2a.741.741,0,1,0,1.443-.335c-1.293-5.57-2.912-10.5-4.176-12.737.2-.961.438-2.012.665-3.032.585-2.623,1.189-5.336,1.351-6.859.235-2.212.075-7.718.02-9.352A1.228,1.228,0,0,0,23.782,0H22.043a1.234,1.234,0,0,0-1.232,1.233V3.016a6.332,6.332,0,0,1-6.246,6.372h-.022A6.266,6.266,0,0,1,8.275,3.12V1.234A1.234,1.234,0,0,0,7.042,0H5.3A1.228,1.228,0,0,0,4.072,1.192c-.032.942-.1,3.374-.1,5.612a.741.741,0,0,0,1.482,0c0-2.045.062-4.258.1-5.321H6.793V3.12a7.749,7.749,0,0,0,7.777,7.75,7.817,7.817,0,0,0,7.723-7.854V1.483h1.248c.059,1.853.194,6.883-.021,8.9-.154,1.44-.748,4.111-1.324,6.694-.2.917-.414,1.858-.6,2.741H11.727c-.024,0-.047,0-.071,0H7.492c-.181-.84-.38-1.735-.574-2.608-.588-2.637-1.2-5.365-1.351-6.827-.019-.178-.036-.395-.052-.665a.741.741,0,0,0-1.479.09c.018.292.037.531.058.731.165,1.546.782,4.315,1.378,6.992.229,1.028.465,2.088.668,3.046a47.661,47.661,0,0,0-3.323,9.471A106.9,106.9,0,0,0,0,44.865a.741.741,0,0,0,.812.821A18.231,18.231,0,0,1,8.69,46.97c.985.34,1.988.724,2.959,1.095a37.471,37.471,0,0,0,7.872,2.367,15.2,15.2,0,0,0,2.166.159A11.884,11.884,0,0,0,29.167,48.1a.741.741,0,0,0,.281-.643c-.092-1.141-.215-2.326-.365-3.533h.454a1.518,1.518,0,0,0,1.446-1.041,16.757,16.757,0,0,1,3.69-5.869,10.175,10.175,0,0,1,3.218-2.495,16.945,16.945,0,0,1,.175,3.032v5.038A1.335,1.335,0,0,0,39.4,43.922h1.227a1.336,1.336,0,0,0,1.334-1.334V37.55a6.94,6.94,0,0,1,.926-3.028A8.531,8.531,0,0,0,44,30.663c0-4.037-1.6-6.967-3.8-6.967ZM41.551,33.88a8.2,8.2,0,0,0-1.073,3.67v4.889h-.931V37.55c0-2.368-.11-3.768-.69-4.38a.741.741,0,0,0-.538-.231c-1.716,0-4.051,2.34-4.726,3.057a18.286,18.286,0,0,0-4.018,6.419.04.04,0,0,1-.039.024H17.829c.092-1.723.961-5.465,6.586-6.754.8,1.707,1.925,2.572,3.353,2.572,2.373,0,4.828-2.745,7.3-8.157,1.657-3.635,3-4.923,5.134-4.923.973,0,2.32,1.906,2.32,5.485a7.254,7.254,0,0,1-.966,3.217Zm0,0" fill="#333e48" stroke="#333e48" stroke-width="0.5"/>
    </g>
    <g id="hat_1_" data-name="hat (1)" transform="matrix(0.883, -0.469, 0.469, 0.883, 651.91, 136.953)">
      <path id="Path_56" data-name="Path 56" d="M32.742-.043a3.3,3.3,0,0,0-.919-1.586A3.257,3.257,0,0,0,30.879-4,3.255,3.255,0,0,0,28.5-4.949a3.254,3.254,0,0,0-2.348-1.012,3.163,3.163,0,0,0-.543.047,10,10,0,0,0-8.363-4.5,10.036,10.036,0,0,0-9.8,7.92c-5.778,1.592-9.2,4.43-9.2,7.666,0,2.55,2.1,4.87,5.924,6.531a33.739,33.739,0,0,0,13.076,2.375A33.74,33.74,0,0,0,30.326,11.7c3.82-1.662,5.923-3.981,5.923-6.531,0-1.9-1.21-3.7-3.507-5.215ZM27.492-2.506c.738-.173,1.327-.41,1.813.076s.249,1.071.077,1.813c.648.4,1.228.65,1.228,1.336s-.581.933-1.228,1.336c.172.738.409,1.327-.077,1.813s-1.069.25-1.813.076l-.421.678a1.035,1.035,0,0,1-1.83,0l-.421-.678c-.741.173-1.327.409-1.813-.076S22.758,2.8,22.93,2.055c-.643-.4-1.228-.649-1.228-1.336s.582-.934,1.228-1.336c-.172-.736-.409-1.328.077-1.813s1.071-.249,1.813-.076c.4-.647.65-1.228,1.336-1.228s.934.581,1.336,1.228ZM9.456,2.184a39.2,39.2,0,0,0,7.793.761c1.014,0,2.027-.037,3.022-.109q.1.12.217.23a3.282,3.282,0,0,0,.568,1.922c-1.239.122-2.511.183-3.807.183a36.568,36.568,0,0,1-7.793-.809ZM17.249-8.188a7.782,7.782,0,0,1,6.329,3.243A3.245,3.245,0,0,0,21.432-4a3.255,3.255,0,0,0-.944,2.376A3.257,3.257,0,0,0,19.477.656C18.74.7,18,.719,17.249.719A36.544,36.544,0,0,1,9.456-.092v-.3a7.8,7.8,0,0,1,7.793-7.793ZM29.438,9.662a31.5,31.5,0,0,1-12.188,2.19A31.5,31.5,0,0,1,5.061,9.662C2.147,8.394.476,6.757.476,5.172c0-1.3,1.12-2.384,2.06-3.07A16.292,16.292,0,0,1,7.23-.109V6.109A37.913,37.913,0,0,0,17.249,7.4a39.335,39.335,0,0,0,7.024-.611,3.22,3.22,0,0,0,1.883.611A3.255,3.255,0,0,0,28.5,6.386a3.228,3.228,0,0,0,3.32-3.32,3.378,3.378,0,0,0,.521-.643,3.828,3.828,0,0,1,1.678,2.748c0,1.586-1.671,3.222-4.585,4.49Zm0,0" fill="#333e48" stroke="#fff" stroke-width="0.7"/>
      <path id="Path_57" data-name="Path 57" d="M561.762,200.316h2.227v2.227h-2.227Zm0,0" transform="translate(-536.72 -200.711)" fill="#333e48" stroke="#fff" stroke-width="0.7"/>
    </g>
    <g id="head-band" transform="translate(689 102)">
      <path id="Path_61" data-name="Path 61" d="M28.049,6.133V3.672A2.672,2.672,0,0,0,24.292,1.23L21.436,2.5a2,2,0,0,0-1.4-.575H17.362a2,2,0,0,0-1.4.575L13.1,1.233A2.672,2.672,0,0,0,9.347,3.672V6.134A16.686,16.686,0,0,0,8.362,33.07a.668.668,0,0,0,.886-1,13.352,13.352,0,0,1,2.143-20.619A2.6,2.6,0,0,0,13.1,11.3l2.856-1.269a2,2,0,0,0,1.4.576h2.672a2,2,0,0,0,1.4-.576L24.293,11.3a2.6,2.6,0,0,0,1.712.15,13.352,13.352,0,0,1,2.144,20.619.668.668,0,0,0,.886,1,16.687,16.687,0,0,0-.987-26.937ZM4,22.633a14.839,14.839,0,0,0,.2,2.439A15.382,15.382,0,0,1,9.347,7.778V8.863a2.658,2.658,0,0,0,.751,1.853A14.611,14.611,0,0,0,4,22.633ZM15.358,8.84l-2.8,1.244a1.336,1.336,0,0,1-1.878-1.221V3.672a1.336,1.336,0,0,1,1.878-1.22l2.8,1.245V5.6h-2a.668.668,0,0,0,0,1.336h2Zm4.675.434h-.668V8.606a.668.668,0,1,0-1.336,0v.668h-.668a.668.668,0,0,1-.668-.668V3.931a.668.668,0,0,1,.668-.668h.668v.668a.668.668,0,1,0,1.336,0V3.263h.668a.668.668,0,0,1,.668.668V8.606A.668.668,0,0,1,20.034,9.274Zm4.8.81-2.8-1.244v-1.9h2a.668.668,0,0,0,0-1.336h-2V3.7l2.8-1.242a1.336,1.336,0,0,1,1.878,1.218V8.86a1.336,1.336,0,0,1-1.878,1.224Zm2.462.633a2.656,2.656,0,0,0,.752-1.854V7.777a15.383,15.383,0,0,1,5.143,17.294,14.838,14.838,0,0,0,.2-2.439,14.608,14.608,0,0,0-6.1-11.916Z" transform="translate(0 0.761)" fill="#333e48"/>
    </g>
    <g id="sunglasses" transform="translate(700 46.508)">
      <path id="Path_62" data-name="Path 62" d="M26.534,98.449a.53.53,0,0,0-.435-.114c-.009,0-.368.068-.964.191L21,92.695a1.913,1.913,0,0,0-1.708-.74,1.759,1.759,0,0,0-1.757,1.757.531.531,0,0,0,1.061,0c0-.744,1.146-.957,1.539-.4l3.875,5.46c-.732.163-1.606.37-2.54.614a.531.531,0,0,0,.268,1.027c1.656-.433,3.121-.745,3.919-.906-.1,3.127-.984,5.417-2.617,6.813a7.6,7.6,0,0,1-6.008,1.433,2.641,2.641,0,0,1-2.307-2.666,1.367,1.367,0,0,0-2.718,0A2.641,2.641,0,0,1,9.7,107.748a7.6,7.6,0,0,1-6.008-1.433c-1.633-1.4-2.512-3.686-2.617-6.813a44.647,44.647,0,0,1,9.991,2.958,5.481,5.481,0,0,0,4.6,0c.6-.278,1.287-.558,2.054-.832a.531.531,0,0,0-.358-1c-.8.286-1.519.578-2.145.869a4.407,4.407,0,0,1-3.7,0,47.827,47.827,0,0,0-8.926-2.762l.84-1.184a.531.531,0,0,0-.865-.614L1.454,98.5c-.475-.1-.774-.152-.828-.162A.54.54,0,0,0,0,98.856c0,3.784,1.009,6.565,3,8.266A8.658,8.658,0,0,0,9.862,108.8a3.673,3.673,0,0,0,3.2-3.632.3.3,0,0,1,.6,0,3.673,3.673,0,0,0,3.2,3.632,8.532,8.532,0,0,0,6.862-1.674c1.991-1.7,3-4.482,3-8.266a.531.531,0,0,0-.191-.408Z" transform="translate(0 0)" fill="#333e48" stroke="#333e48" stroke-width="0.3"/>
      <path id="Path_63" data-name="Path 63" d="M49.148,261.264c-1.745-.843-3.642-1.207-5.438-1.9-.8-.311-2.17-.362-1.83.92a7.639,7.639,0,0,0,2.828,4.191,4.244,4.244,0,0,0,5.061.192C51.205,263.529,50.607,261.969,49.148,261.264Zm-.037,2.569a3.176,3.176,0,0,1-3.782-.22,6.64,6.64,0,0,1-2.362-3.389,39.787,39.787,0,0,1,5.72,2C49.431,262.579,49.92,263.193,49.111,263.833Z" transform="translate(-39.608 -158.352)" fill="#333e48" stroke="#333e48" stroke-width="0.3"/>
      <path id="Path_64" data-name="Path 64" d="M296.857,261.791a1.971,1.971,0,0,0,.858,1.723,4.244,4.244,0,0,0,5.061-.192,7.639,7.639,0,0,0,2.828-4.191.915.915,0,0,0-.135-.869h0c-.452-.53-1.23-.229-1.695-.05-1.8.694-3.693,1.058-5.438,1.9A2.255,2.255,0,0,0,296.857,261.791Zm5.337-1.96c.779-.239,1.545-.521,2.324-.758a6.641,6.641,0,0,1-2.362,3.389,3.176,3.176,0,0,1-3.782.22,1.02,1.02,0,0,1-.462-.773c.04-.36.5-.656.886-.841A23.836,23.836,0,0,1,302.193,259.831Z" transform="translate(-281.098 -157.201)" fill="#333e48" stroke="#333e48" stroke-width="0.3"/>
      <path id="Path_65" data-name="Path 65" d="M92.6,94.249c.587.416,1.051-.565,1.312-.932.393-.554,1.539-.34,1.539.4a.531.531,0,0,0,1.061,0,1.759,1.759,0,0,0-1.757-1.757c-1.176-.023-1.668.683-2.281,1.547A.531.531,0,0,0,92.6,94.249Z" transform="translate(-87.471 -0.008)" fill="#333e48" stroke="#333e48" stroke-width="0.3"/>
      <path id="Path_66" data-name="Path 66" d="M358.692,242.911a.53.53,0,1,0,.146-.735A.535.535,0,0,0,358.692,242.911Z" transform="translate(-339.578 -142.17)" fill="#333e48" stroke="#333e48" stroke-width="0.3"/>
      <path id="Path_67" data-name="Path 67" d="M68.613,148.8a.53.53,0,1,0,.185-.637.535.535,0,0,0-.185.637Z" transform="translate(-64.935 -53.138)" fill="#333e48" stroke="#333e48" stroke-width="0.3"/>
    </g>
    <g id="Outline" transform="translate(564.009 145.644)">
      <path id="Path_68" data-name="Path 68" d="M157.5,33.6h-2.152a9.709,9.709,0,0,0-1.107-2.918V25.124a.652.652,0,0,0-.652-.652h-1.955v-7.82A.652.652,0,0,0,150.98,16H140.553a.652.652,0,0,0-.652.652v7.82h-1.955a.652.652,0,0,0-.652.652v3.258h1.3V25.775h1.3v1.96a9.763,9.763,0,0,0-2.607,12.688v5.554a.652.652,0,0,0,.652.652H139.9v7.82a.652.652,0,0,0,.652.652H150.98a.652.652,0,0,0,.652-.652v-7.82h1.955a.652.652,0,0,0,.652-.652V42.719h-1.3v2.607h-1.3v-1.96a9.791,9.791,0,0,0,3.714-5.86H157.5a.652.652,0,0,0,.652-.652V34.247A.652.652,0,0,0,157.5,33.6Zm-4.562-7.82v3.137a9.854,9.854,0,0,0-1.3-1.177v-1.96Zm-11.73-.652V17.3h9.124v9.6a9.729,9.729,0,0,0-1.3-.573V25.124h-1.3v.848a9.746,9.746,0,0,0-1.3-.174v-.674h-1.3V25.8a9.744,9.744,0,0,0-1.3.174v-.848h-1.3v1.211a9.728,9.728,0,0,0-1.3.573Zm-2.607,20.2V42.189a9.861,9.861,0,0,0,1.3,1.177v1.96Zm11.73.652V53.8H141.2v-9.6a9.728,9.728,0,0,0,1.3.573v1.211h1.3v-.848a9.744,9.744,0,0,0,1.3.174v.674h1.3V45.3a9.745,9.745,0,0,0,1.3-.174v.848h1.3V44.766a9.728,9.728,0,0,0,1.3-.573Zm-4.562-1.955a8.472,8.472,0,1,1,8.472-8.472A8.472,8.472,0,0,1,145.767,44.022Zm11.079-7.82H155.52c.014-.216.022-.433.022-.652s-.008-.436-.022-.652h1.326Z" fill="#333e48"/>
      <path id="Path_69" data-name="Path 69" d="M175.159,168a7.108,7.108,0,0,0-4.3,1.434l.783,1.043a5.864,5.864,0,1,1-1.173,1.173l-1.043-.783A7.168,7.168,0,1,0,175.159,168Z" transform="translate(-29.393 -139.618)" fill="#333e48"/>
      <path id="Path_70" data-name="Path 70" d="M220.615,210.343l-2.461,2.461a1.29,1.29,0,0,0-1.313.4l-2.154-.431-.256,1.278,2.153.431a1.3,1.3,0,0,0,2.491-.754l2.461-2.461Z" transform="translate(-72.051 -178.512)" fill="#333e48"/>
      <path id="Path_71" data-name="Path 71" d="M216,48h1.3v1.955H216Z" transform="translate(-73.492 -29.393)" fill="#333e48"/>
      <path id="Path_72" data-name="Path 72" d="M248,48h1.3v1.955H248Z" transform="translate(-102.885 -29.393)" fill="#333e48"/>
      <path id="Path_73" data-name="Path 73" d="M280,48h1.3v1.955H280Z" transform="translate(-132.278 -29.393)" fill="#333e48"/>
      <path id="Path_74" data-name="Path 74" d="M216,88h1.3v1.955H216Z" transform="translate(-73.492 -66.135)" fill="#333e48"/>
      <path id="Path_75" data-name="Path 75" d="M248,88h1.3v1.955H248Z" transform="translate(-102.885 -66.135)" fill="#333e48"/>
      <path id="Path_76" data-name="Path 76" d="M280,88h1.3v1.955H280Z" transform="translate(-132.278 -66.135)" fill="#333e48"/>
      <path id="Path_77" data-name="Path 77" d="M216,400h1.3v1.955H216Z" transform="translate(-73.492 -352.719)" fill="#333e48"/>
      <path id="Path_78" data-name="Path 78" d="M248,400h1.3v1.955H248Z" transform="translate(-102.885 -352.719)" fill="#333e48"/>
      <path id="Path_79" data-name="Path 79" d="M280,400h1.3v1.955H280Z" transform="translate(-132.278 -352.719)" fill="#333e48"/>
      <path id="Path_80" data-name="Path 80" d="M216,440h1.3v1.955H216Z" transform="translate(-73.492 -389.461)" fill="#333e48"/>
      <path id="Path_81" data-name="Path 81" d="M248,440h1.3v1.955H248Z" transform="translate(-102.885 -389.461)" fill="#333e48"/>
      <path id="Path_82" data-name="Path 82" d="M280,440h1.3v1.955H280Z" transform="translate(-132.278 -389.461)" fill="#333e48"/>
    </g>
    <g id="purse" transform="translate(677.171 144.171)">
      <path id="Path_89" data-name="Path 89" d="M12.248,24.5c4.321,0,12.248-1.465,12.248-5.741,0-2.19-2.395-3.4-2.918-3.778V10.86a5.03,5.03,0,0,0-4.623-5.008L15.4,3.45A2.152,2.152,0,0,0,12.248.55,2.152,2.152,0,0,0,9.1,3.45l-1.554,2.4A5.03,5.03,0,0,0,2.918,10.86v4.116C2.449,15.313,0,16.544,0,18.754,0,23.029,7.922,24.5,12.248,24.5Zm0-20.74a2.146,2.146,0,0,0,1.956.486l1.032,1.595H9.261l1.032-1.595A2.146,2.146,0,0,0,12.248,3.756Zm1.435-2.321a.718.718,0,1,1-.718.718A.718.718,0,0,1,13.683,1.435Zm-2.871,0a.718.718,0,1,1-.718.718A.718.718,0,0,1,10.812,1.435ZM4.354,10.86A3.592,3.592,0,0,1,7.94,7.272h8.616a3.592,3.592,0,0,1,3.586,3.588V12.3a3.592,3.592,0,0,0-3.588-3.588H7.942A3.592,3.592,0,0,0,4.354,12.3ZM3.366,16.4a4.774,4.774,0,0,0,2.423-4.1,2.155,2.155,0,0,1,2.153-2.153h8.612A2.155,2.155,0,0,1,18.707,12.3a4.774,4.774,0,0,0,2.423,4.1c1.245.738,1.93,1.575,1.93,2.357,0,2.8-6.49,4.306-10.812,4.306-4.271,0-10.812-1.493-10.812-4.306C1.435,17.973,2.121,17.136,3.366,16.4Z" fill="#333e48"/>
    </g>
  </g>
</svg>
