<svg xmlns="http://www.w3.org/2000/svg" width="114.295" height="121.443" viewBox="0 0 114.295 121.443">
  <defs>
    <style>
      .cls-1 {
        fill: none;
        stroke-linecap: round;
      }

      .cls-2, .cls-4 {
        fill: #fff;
      }

      .cls-3, .cls-4 {
        stroke: none;
      }
    </style>
  </defs>
  <g id="Group_62" data-name="Group 62" transform="translate(-1182.858 -469)">
    <g id="Path_1" data-name="Path 1" class="cls-1" transform="translate(1191 528.008)">
      <path class="cls-3" d="M37.591,13.48h0l11.255,5.026,11.3-4.237L30.073,2.992,0,14.269,30.073,25.547l11.255-4.221L30.073,16.686v-.011Z"/>
      <path class="cls-4" d="M 30.07295608520508 5.12800407409668 L 5.696006774902344 14.26936054229736 L 30.07287979125977 23.41068840026855 L 35.8665771484375 21.23757171630859 L 29.31083679199219 18.53557014465332 L 28.07295608520508 18.02537155151367 L 28.07295608520508 16.68647003173828 L 28.07295608520508 16.67518997192383 L 28.07295608520508 15.35206031799316 L 29.29067611694336 14.8345308303833 L 36.80891418457031 11.63928031921387 L 37.61095428466797 11.29841041564941 L 38.40669631958008 11.65375137329102 L 48.91223907470703 16.34511184692383 L 54.44934844970703 14.26915454864502 L 30.07295608520508 5.12800407409668 M 30.07295608520508 2.992000579833984 L 60.14590454101563 14.26936054229736 L 48.84599685668945 18.50588989257813 L 37.59119415283203 13.47994041442871 L 30.07295608520508 16.67518997192383 L 30.07295608520508 16.68647003173828 L 41.32776641845703 21.32522964477539 L 30.07295608520508 25.54672050476074 L -3.814697265625e-06 14.26936054229736 L 30.07295608520508 2.992000579833984 Z"/>
    </g>
    <g id="Path_2" data-name="Path 2" class="cls-1" transform="translate(1191 415.045)">
      <path class="cls-3" d="M0,130.992v33.832L28.193,175.4V141.566Z"/>
      <path class="cls-4" d="M 1.999998092651367 133.8781890869141 L 1.999998092651367 163.4381561279297 L 26.19339752197266 172.5122833251953 L 26.19339752197266 142.9523315429688 L 1.999998092651367 133.8781890869141 M -1.9073486328125e-06 130.9920043945313 L 28.19339752197266 141.56640625 L 28.19339752197266 175.3984680175781 L -1.9073486328125e-06 164.8240814208984 L -1.9073486328125e-06 130.9920043945313 Z"/>
    </g>
    <g id="Path_3" data-name="Path 3" class="cls-1" transform="translate(950.953 415.045)">
      <path class="cls-3" d="M288.916,135.221v9.417l-7.518,2.819V138.04l-9.4,3.526V175.4l28.193-10.574V130.992Z"/>
      <path class="cls-4" d="M 298.1933898925781 133.8780059814453 L 290.916015625 136.6070098876953 L 290.916015625 144.6376037597656 L 290.916015625 146.0236053466797 L 289.6182556152344 146.5102691650391 L 282.1000366210938 149.32958984375 L 279.3977966308594 150.3429412841797 L 279.3977966308594 147.4569396972656 L 279.3977966308594 140.9268798828125 L 274 142.9521484375 L 274 172.5122833251953 L 298.1933898925781 163.4381561279297 L 298.1933898925781 133.8780059814453 M 300.1933898925781 130.9920043945313 L 300.1933898925781 164.8240814208984 L 272 175.3984680175781 L 272 141.56640625 L 281.3977966308594 138.0403442382813 L 281.3977966308594 147.4569396972656 L 288.916015625 144.6376037597656 L 288.916015625 135.2210083007813 L 300.1933898925781 130.9920043945313 Z"/>
    </g>
    <rect id="Rectangle_7" data-name="Rectangle 7" class="cls-2" width="3.292" height="16.461" transform="translate(1202.826 555.518)"/>
    <path id="Path_50" data-name="Path 50" class="cls-2" d="M238.2,355.99a2.195,2.195,0,1,0,2.195,2.195A2.2,2.2,0,0,0,238.2,355.99Z" transform="translate(966.275 219.281)"/>
    <g id="Path_1-2" data-name="Path 1" class="cls-1" transform="translate(1221 466.008)">
      <path class="cls-3" d="M37.591,13.48h0l11.255,5.026,11.3-4.237L30.073,2.992,0,14.269,30.073,25.547l11.255-4.221L30.073,16.686v-.011Z"/>
      <path class="cls-4" d="M 30.07295608520508 5.12800407409668 L 5.696006774902344 14.26936054229736 L 30.07287979125977 23.41068840026855 L 35.8665771484375 21.23757171630859 L 29.31083679199219 18.53557014465332 L 28.07295608520508 18.02537155151367 L 28.07295608520508 16.68647003173828 L 28.07295608520508 16.67518997192383 L 28.07295608520508 15.35206031799316 L 29.29067611694336 14.8345308303833 L 36.80891418457031 11.63928031921387 L 37.61095428466797 11.29841041564941 L 38.40669631958008 11.65375137329102 L 48.91223907470703 16.34511184692383 L 54.44934844970703 14.26915454864502 L 30.07295608520508 5.12800407409668 M 30.07295608520508 2.992000579833984 L 60.14590454101563 14.26936054229736 L 48.84599685668945 18.50588989257813 L 37.59119415283203 13.47994041442871 L 30.07295608520508 16.67518997192383 L 30.07295608520508 16.68647003173828 L 41.32776641845703 21.32522964477539 L 30.07295608520508 25.54672050476074 L -3.814697265625e-06 14.26936054229736 L 30.07295608520508 2.992000579833984 Z"/>
    </g>
    <g id="Path_2-2" data-name="Path 2" class="cls-1" transform="translate(1221 353.044)">
      <path class="cls-3" d="M0,130.992v33.832L28.193,175.4V141.566Z"/>
      <path class="cls-4" d="M 1.999998092651367 133.8781890869141 L 1.999998092651367 163.4381561279297 L 26.19339752197266 172.5122833251953 L 26.19339752197266 142.9523315429688 L 1.999998092651367 133.8781890869141 M -1.9073486328125e-06 130.9920043945313 L 28.19339752197266 141.56640625 L 28.19339752197266 175.3984680175781 L -1.9073486328125e-06 164.8240814208984 L -1.9073486328125e-06 130.9920043945313 Z"/>
    </g>
    <g id="Path_3-2" data-name="Path 3" class="cls-1" transform="translate(980.953 353.044)">
      <path class="cls-3" d="M288.916,135.221v9.417l-7.518,2.819V138.04l-9.4,3.526V175.4l28.193-10.574V130.992Z"/>
      <path class="cls-4" d="M 298.1933898925781 133.8780059814453 L 290.916015625 136.6070098876953 L 290.916015625 144.6376037597656 L 290.916015625 146.0236053466797 L 289.6182556152344 146.5102691650391 L 282.1000366210938 149.32958984375 L 279.3977966308594 150.3429412841797 L 279.3977966308594 147.4569396972656 L 279.3977966308594 140.9268798828125 L 274 142.9521484375 L 274 172.5122833251953 L 298.1933898925781 163.4381561279297 L 298.1933898925781 133.8780059814453 M 300.1933898925781 130.9920043945313 L 300.1933898925781 164.8240814208984 L 272 175.3984680175781 L 272 141.56640625 L 281.3977966308594 138.0403442382813 L 281.3977966308594 147.4569396972656 L 288.916015625 144.6376037597656 L 288.916015625 135.2210083007813 L 300.1933898925781 130.9920043945313 Z"/>
    </g>
    <path id="Path_52" data-name="Path 52" class="cls-2" d="M180.5,271h3.3v3.3h-3.3Zm0,0" transform="matrix(0.995, 0.105, -0.105, 0.995, 1082.227, 226.13)"/>
    <path id="Path_53" data-name="Path 53" class="cls-2" d="M145.41,96.607a3.269,3.269,0,0,1-1.075,2.438l-3.88,3.551v4.031h3.3V104.05l2.806-2.569A6.606,6.606,0,1,0,135.5,96.607h3.3a3.3,3.3,0,1,1,6.606,0Zm0,0" transform="matrix(0.995, 0.105, -0.105, 0.995, 1105.217, 390.504)"/>
    <path id="Path_54" data-name="Path 54" class="cls-2" d="M480.912,288.735a2.568,2.568,0,0,0-3,2.048c-.15.792-.321,1.6-.511,2.385a2.568,2.568,0,0,0,4.994,1.2c.21-.873.4-1.759.565-2.635A2.568,2.568,0,0,0,480.912,288.735Z" transform="translate(813.262 253.239)"/>
    <path id="Path_55" data-name="Path 55" class="cls-2" d="M488.67,231.385a2.568,2.568,0,1,0-5.127.317c.05.805.08,1.627.09,2.44a2.568,2.568,0,0,0,2.568,2.536h.033a2.568,2.568,0,0,0,2.536-2.6C488.758,233.179,488.724,232.274,488.67,231.385Z" transform="translate(808.383 300.174)"/>
    <path id="Path_56" data-name="Path 56" class="cls-2" d="M472.556,173.541c.248.769.481,1.556.69,2.338a2.568,2.568,0,0,0,4.961-1.331c-.232-.865-.489-1.734-.763-2.586a2.568,2.568,0,1,0-4.888,1.578Z" transform="translate(817.112 346.383)"/>
    <path id="Path_57" data-name="Path 57" class="cls-2" d="M379.423,437.927c-.651.479-1.324.949-2,1.4a2.569,2.569,0,1,0,2.836,4.284c.746-.494,1.489-1.013,2.209-1.542a2.568,2.568,0,0,0-3.044-4.137Z" transform="translate(892.691 136.335)"/>
    <path id="Path_58" data-name="Path 58" class="cls-2" d="M326.686,466.784c-.749.3-1.517.591-2.28.856a2.568,2.568,0,0,0,1.684,4.853c.843-.293,1.691-.611,2.52-.946a2.568,2.568,0,1,0-1.925-4.762Z" transform="translate(934.813 113.409)"/>
    <path id="Path_59" data-name="Path 59" class="cls-2" d="M450.939,123.339a2.568,2.568,0,0,0,2.235-3.83c-.439-.778-.9-1.557-1.383-2.315a2.568,2.568,0,1,0-4.342,2.744c.433.685.854,1.39,1.25,2.093A2.567,2.567,0,0,0,450.939,123.339Z" transform="translate(837.06 388.971)"/>
    <path id="Path_60" data-name="Path 60" class="cls-2" d="M427.56,396.841a2.568,2.568,0,0,0-3.615.354c-.514.626-1.051,1.247-1.6,1.846a2.568,2.568,0,1,0,3.8,3.454c.6-.662,1.195-1.348,1.763-2.04A2.568,2.568,0,0,0,427.56,396.841Z" transform="translate(857 168.694)"/>
    <path id="Path_61" data-name="Path 61" class="cls-2" d="M175.354,18.215a2.57,2.57,0,0,0,.762-.116c.482-.15.975-.294,1.465-.429a2.568,2.568,0,0,0-1.367-4.951c-.541.15-1.086.309-1.62.475a2.568,2.568,0,0,0,.76,5.022Z" transform="translate(1037.341 517.661) rotate(-14)"/>
    <path id="Path_62" data-name="Path 62" class="cls-2" d="M120.895,39.893a2.558,2.558,0,0,0,1.344-.382c.689-.424,1.4-.837,2.108-1.227a2.568,2.568,0,1,0-2.472-4.5c-.784.43-1.568.886-2.329,1.355a2.568,2.568,0,0,0,1.348,4.756Z" transform="translate(1074.912 491.413) rotate(-14)"/>
    <path id="Path_63" data-name="Path 63" class="cls-2" d="M14.511,176.01a2.565,2.565,0,0,0,3.159-1.792c.214-.778.453-1.564.709-2.337a2.568,2.568,0,1,0-4.877-1.612c-.282.853-.546,1.722-.783,2.582a2.568,2.568,0,0,0,1.792,3.159Z" transform="translate(1129.843 368.329) rotate(-14)"/>
    <path id="Path_64" data-name="Path 64" class="cls-2" d="M74.237,75.491a2.56,2.56,0,0,0,1.844-.781c.563-.581,1.149-1.156,1.742-1.709a2.568,2.568,0,1,0-3.506-3.754c-.654.611-1.3,1.246-1.923,1.888a2.568,2.568,0,0,0,1.844,4.356Z" transform="translate(1103.819 455.78) rotate(-14)"/>
    <path id="Path_65" data-name="Path 65" class="cls-2" d="M36.958,121.5a2.567,2.567,0,0,0,3.506-.95c.4-.7.83-1.405,1.267-2.085a2.569,2.569,0,1,0-4.323-2.776c-.483.752-.954,1.528-1.4,2.305a2.568,2.568,0,0,0,.95,3.506Z" transform="translate(1122.539 413.894) rotate(-14)"/>
    <path id="Path_66" data-name="Path 66" class="cls-2" d="M460.916,345.885a2.568,2.568,0,0,0-3.415,1.237c-.342.732-.71,1.467-1.09,2.183a2.569,2.569,0,0,0,4.537,2.409c.421-.792.826-1.605,1.206-2.415A2.568,2.568,0,0,0,460.916,345.885Z" transform="translate(829.94 208.476)"/>
  </g>
</svg>
