<svg xmlns="http://www.w3.org/2000/svg" width="87.697" height="121.341" viewBox="0 0 87.697 121.341">
  <defs>
    <style>
      .cls-1 {
        fill: #fff;
      }
    </style>
  </defs>
  <g id="Group_59" data-name="Group 59" transform="translate(-1362.234 -469.102)">
    <g id="conversation" transform="translate(1395.175 465.091)">
      <g id="Group_51" data-name="Group 51" transform="translate(0 4.011)">
        <g id="Group_50" data-name="Group 50" transform="translate(0 0)">
          <path id="Path_67" data-name="Path 67" class="cls-1" d="M54.558,46.557,51.378,37.3A23.153,23.153,0,0,0,30.973,4.014a23.127,23.127,0,0,0-23.5,22.824A16.853,16.853,0,0,0,2.356,47.545L.166,53.92A3.012,3.012,0,0,0,3,57.909a3.032,3.032,0,0,0,.986-.166l6.375-2.191a16.924,16.924,0,0,0,7.205,1.627H17.6A16.828,16.828,0,0,0,31.2,50.259a23.2,23.2,0,0,0,9.557-2.34l9.255,3.18a3.6,3.6,0,0,0,1.172.2,3.58,3.58,0,0,0,3.371-4.74ZM17.6,53.92h-.021a13.63,13.63,0,0,1-6.331-1.572,1.63,1.63,0,0,0-1.292-.1L3.415,54.494l2.246-6.537a1.63,1.63,0,0,0-.1-1.292A13.589,13.589,0,0,1,7.775,30.91a23.217,23.217,0,0,0,19.354,19.1A13.554,13.554,0,0,1,17.6,53.92Zm33.8-5.977a.3.3,0,0,1-.326.075l-9.908-3.4a1.629,1.629,0,0,0-1.292.1,19.907,19.907,0,0,1-9.245,2.3H30.6A19.948,19.948,0,0,1,10.731,27.462a19.87,19.87,0,0,1,20.19-20.19A19.874,19.874,0,0,1,48.172,36.416a1.63,1.63,0,0,0-.1,1.292l3.4,9.908A.3.3,0,0,1,51.4,47.942Z" transform="translate(0 -4.011)"/>
        </g>
      </g>
      <g id="Group_53" data-name="Group 53" transform="translate(19.26 18.502)">
        <g id="Group_52" data-name="Group 52">
          <path id="Path_68" data-name="Path 68" class="cls-1" d="M201.14,139.512H181.724a1.63,1.63,0,1,0,0,3.259H201.14a1.63,1.63,0,0,0,0-3.259Z" transform="translate(-180.094 -139.512)"/>
        </g>
      </g>
      <g id="Group_55" data-name="Group 55" transform="translate(19.26 25.204)">
        <g id="Group_54" data-name="Group 54">
          <path id="Path_69" data-name="Path 69" class="cls-1" d="M201.14,202.183H181.724a1.63,1.63,0,0,0,0,3.259H201.14a1.63,1.63,0,0,0,0-3.259Z" transform="translate(-180.094 -202.183)"/>
        </g>
      </g>
      <g id="Group_57" data-name="Group 57" transform="translate(19.26 31.907)">
        <g id="Group_56" data-name="Group 56">
          <path id="Path_70" data-name="Path 70" class="cls-1" d="M193.665,264.852H181.723a1.63,1.63,0,1,0,0,3.259h11.943a1.63,1.63,0,0,0,0-3.259Z" transform="translate(-180.093 -264.852)"/>
        </g>
      </g>
    </g>
    <g id="Group_58" data-name="Group 58" transform="translate(1362.234 519.402)">
      <path id="Path_23" data-name="Path 23" class="cls-1" d="M148.8,86.829,120.889,71.363a4.655,4.655,0,0,0-4.537,0h0L88.437,86.829a4.683,4.683,0,0,0-2.412,4.095v30.738a4.683,4.683,0,0,0,2.412,4.095l27.915,15.466a4.654,4.654,0,0,0,4.537,0L148.8,125.757a4.683,4.683,0,0,0,2.412-4.095V90.924A4.683,4.683,0,0,0,148.8,86.829ZM118.211,74.717a.84.84,0,0,1,.82,0l11.147,6.176-26.884,14.9L91.886,89.3ZM116.7,137.033,90.3,122.4a.846.846,0,0,1-.436-.74v-29.1l12.459,7.083.009.005,14.376,8.173Zm-9.5-39.025,26.935-14.923L145.717,89.5l-27.084,15.006Zm40.182,23.654a.846.846,0,0,1-.436.741l-26.407,14.631v-29.2l26.844-14.873Z" transform="translate(-86.025 -70.773)"/>
    </g>
  </g>
</svg>
