<svg xmlns="http://www.w3.org/2000/svg" width="118.886" height="118.886" viewBox="0 0 118.886 118.886">
  <defs>
    <style>
      .cls-1 {
        fill: #fff;
      }
    </style>
  </defs>
  <g id="boxes" transform="translate(-4.557 -4.557)">
    <path id="Path_4" data-name="Path 4" class="cls-1" d="M121.693,62.25H94.6V6.307a1.75,1.75,0,0,0-1.75-1.75h-57.7a1.75,1.75,0,0,0-1.75,1.75V62.25H6.307A1.75,1.75,0,0,0,4.557,64v57.693a1.749,1.749,0,0,0,1.75,1.75H121.693a1.749,1.749,0,0,0,1.75-1.75V64a1.75,1.75,0,0,0-1.75-1.75Zm-1.75,14.643H101.62V65.75h18.323ZM29.88,65.75H40.426V88.483l-3.7-3.869a1.751,1.751,0,0,0-2.476-.054l-4.37,4.188Zm14.046,0H62.25V76.893H43.926Zm21.824,0H84.074V76.893H65.75Zm21.824,0H98.12V88.483l-3.7-3.869a1.749,1.749,0,0,0-2.475-.054l-4.372,4.188ZM91.1,19.2H72.773V8.057H91.1ZM58.727,8.057H69.273V30.79l-3.7-3.869a1.751,1.751,0,0,0-2.476-.054l-4.372,4.187Zm-3.5,0V19.2H36.9V8.057ZM36.9,22.7H55.227V35.153a1.75,1.75,0,0,0,2.96,1.264l6.068-5.811,5.5,5.757a1.751,1.751,0,0,0,3.015-1.21V22.7H91.1V62.25H36.9ZM26.38,65.75V76.893H8.057V65.75ZM8.057,80.393H26.38V92.847a1.75,1.75,0,0,0,2.961,1.263l6.067-5.81,5.5,5.757a1.75,1.75,0,0,0,3.015-1.209V80.393H62.25v39.55H8.057Zm57.693,39.55V80.393H84.074V92.847a1.75,1.75,0,0,0,2.96,1.263L93.1,88.3l5.5,5.757a1.751,1.751,0,0,0,3.016-1.209V80.393h18.323v39.55Z"/>
    <path id="Path_5" data-name="Path 5" class="cls-1" d="M25.826,111.8H15.187a1.75,1.75,0,0,0,0,3.5H25.826a1.75,1.75,0,1,0,0-3.5Z"/>
    <path id="Path_6" data-name="Path 6" class="cls-1" d="M36.145,111.8H32.529a1.75,1.75,0,0,0,0,3.5h3.616a1.75,1.75,0,1,0,0-3.5Z"/>
  </g>
</svg>
