<svg xmlns="http://www.w3.org/2000/svg" width="148" height="119" viewBox="0 0 148 119">
    <g fill="none" fill-rule="evenodd">
        <g fill="#FFF">
            <path d="M24.266 4.425c13.686-3.123 20.779 11.98 43.796 11.98S88.357 2.377 112.618 4.893c24.261 2.516 11.844 22.594 23.656 32.755 11.812 10.16 17.389 32.664 3.73 50.805-13.659 18.14-36.717 26.562-62.222 25.45-25.506-1.113-21.151-15.949-37.325-25.318-16.174-9.37-31.122 4.687-38.09-12.283C-4.6 59.33 5.355 54.339 12.322 44.357 19.29 34.374 10.58 7.549 24.266 4.425z" opacity=".4"/>
            <path d="M128.287 22.836c2.918 11.206-25.073 10.697-25.073 29.545 0 18.848 18.805 18.848 16.454 38.714-2.35 19.867-21.111 9.7-30.605 19.371-9.495 9.673-22.817 11.715-47.472 3.055-24.654-8.66-24.82-30.067-23.78-50.952 1.04-20.886 14.902-17.32 23.657-30.564C50.223 18.76 45.116 2.459 64.814.422 84.513-1.616 84.513 3.988 97.73 11.629c13.217 7.64 27.638 0 30.557 11.207z" opacity=".3"/>
        </g>
        <g>
            <path fill="#FFF" stroke="#3325F0" stroke-width="2" d="M37.17 16.251c.624.005 1.247.204 1.773.597h0l17.743 13.256c.544.406.917.97 1.092 1.588.175.62.151 1.294-.1 1.925h0L37.672 83.905c-.227.571-.617 1.044-1.103 1.374-.487.33-1.07.517-1.684.517h0-16.962c-.829 0-1.579-.336-2.122-.878-.543-.543-.878-1.293-.878-2.122h0V33.18c0-.961.46-1.865 1.24-2.429h0l19.225-13.928c.531-.385 1.157-.575 1.782-.57zm.584 4c-1.005 0-1.914.404-2.572 1.054-.662.655-1.071 1.56-1.071 2.558 0 1 .409 1.904 1.071 2.559.658.65 1.567 1.053 2.572 1.053 1.005 0 1.914-.403 2.572-1.053.663-.655 1.072-1.56 1.072-2.559 0-.998-.41-1.903-1.072-2.558-.658-.65-1.567-1.054-2.572-1.054z" transform="translate(34 11)"/>
            <path fill="#BFBAFF" stroke="#3325F0" stroke-width="2" d="M36.412 16.454c.605-.157 1.258-.126 1.868.117h0l21.555 8.606c.878.35 1.54 1.096 1.785 2.01h0l12.851 47.961c.215.8.085 1.612-.3 2.277-.383.665-1.02 1.183-1.82 1.398h0L35.82 88.61c-.8.214-1.612.084-2.277-.3s-1.183-1.021-1.398-1.822h0L19.305 38.563c-.25-.929-.038-1.92.569-2.667h0l14.965-18.43c.413-.51.969-.855 1.573-1.012zm18.48 37.077c-1.495.4-2.688 1.362-3.41 2.591-.724 1.236-.972 2.74-.575 4.222.397 1.482 1.365 2.662 2.61 3.37 1.239.703 2.753.94 4.248.539 1.496-.401 2.689-1.363 3.41-2.592.724-1.235.973-2.74.575-4.222-.397-1.482-1.364-2.661-2.61-3.369-1.238-.704-2.752-.94-4.248-.54zm-19.331-7.22c-1.496.4-2.689 1.362-3.41 2.59-.724 1.236-.973 2.741-.576 4.223.397 1.482 1.365 2.661 2.61 3.368 1.239.704 2.753.94 4.249.54 1.495-.4 2.688-1.362 3.41-2.591.724-1.236.972-2.74.575-4.223-.397-1.482-1.365-2.66-2.61-3.368-1.239-.704-2.753-.94-4.248-.54zm1.56-25.906c-.97.26-1.744.885-2.212 1.684-.47.804-.63 1.783-.372 2.748.258.965.887 1.733 1.697 2.194.804.458 1.786.612 2.757.352.97-.26 1.744-.885 2.211-1.683.471-.804.632-1.784.373-2.749-.258-.965-.887-1.733-1.697-2.194-.804-.458-1.786-.612-2.757-.352z" transform="translate(34 11)"/>
            <path stroke="#3325F0" stroke-linecap="round" stroke-width="2" d="M53.523 41.976L39.748 68.432" transform="translate(34 11) rotate(-15 46.636 55.204)"/>
            <path stroke="#3325F0" stroke-linecap="round" stroke-linejoin="round" stroke-width="2" d="M35.442 23.775c4.155-4.92 6.647-25.723-4.573-23.52-11.22 2.204-2.908 16.961 1.845 18.2" transform="translate(34 11)"/>
            <g fill="#3325F0">
                <path d="M2.594 8.95c-.624.027-1.14-.409-1.153-.973L1.3 1.837C1.287 1.273 1.782.792 2.406.765c.624-.028 1.14.408 1.153.973L3.7 7.877c.013.564-.482 1.045-1.106 1.073M18.277 15.575L11.6 15.27c-.505-.023-.888-.423-.854-.893.034-.47.471-.833.977-.81l6.677.304c.505.023.888.423.854.893-.034.47-.471.833-.977.81M8.592 11.072c-.235-.016-.465-.112-.646-.291-.403-.396-.415-1.04-.03-1.439l5.333-5.53c.386-.398 1.024-.402 1.424-.008.402.395.414 1.04.03 1.439l-5.333 5.53c-.211.217-.496.318-.778.3" transform="translate(34 11) translate(57 8)"/>
            </g>
            <g fill="#3325F0">
                <path d="M2.594 8.95c-.624.027-1.14-.409-1.153-.973L1.3 1.837C1.287 1.273 1.782.792 2.406.765c.624-.028 1.14.408 1.153.973L3.7 7.877c.013.564-.482 1.045-1.106 1.073M18.277 15.575L11.6 15.27c-.505-.023-.888-.423-.854-.893.034-.47.471-.833.977-.81l6.677.304c.505.023.888.423.854.893-.034.47-.471.833-.977.81M8.592 11.072c-.235-.016-.465-.112-.646-.291-.403-.396-.415-1.04-.03-1.439l5.333-5.53c.386-.398 1.024-.402 1.424-.008.402.395.414 1.04.03 1.439l-5.333 5.53c-.211.217-.496.318-.778.3" transform="translate(34 11) rotate(180 10 51)"/>
            </g>
        </g>
    </g>
</svg>
